<?xml  version="1.0" encoding="UTF-8"?>
<!DOCTYPE svg PUBLIC "-//W3C//DTD SVG 1.0//EN" "http://www.w3.org/TR/2001/REC-SVG-20010904/DTD/svg10.dtd" >
<svg xmlns="http://www.w3.org/2000/svg" >
<metadata>
<version>1.0</version>
<id><![CDATA[Caslon 540 LT W01 Roman]]></id>
<vendor>Monotype Imaging Inc.</vendor>
<credits>
<name>Fonts.com WebFonts</name>
<URL>http://webfonts.fonts.com</URL>
<role>Home of the Web fonts</role>
</credits>
<license>
<URL>http://webfonts.fonts.com/Legal</URL>
</license>
<copyright><![CDATA[Copyright © 1988, 1990, 1991, 1994, 2002 Adobe Systems Incorporated.  All Rights Reserved. © 1981, 2002 Heidelberger Druckmaschinen AG. All rights reserved.]]></copyright>
<trademark><![CDATA[Caslon 540]]></trademark>
<licensee>
<name></name>
</licensee>
</metadata>
<defs >
<font horiz-adv-x="423" id="f1f38831-22c8-403c-a4fd-ac9728868124">
<font-face font-family="" panose-1="2 5 6 2 7 5 6 2 4 3" ascent="949" descent="-250" units-per-em="1000" alphabetic="0">
</font-face>
<missing-glyph horiz-adv-x="0" />

<glyph unicode="&#xA;" />
<glyph unicode="&#xD;" />
<glyph unicode=" " horiz-adv-x="250" />
<glyph unicode="!" horiz-adv-x="333" d="M165 -14Q139 -14 124 4T109 43Q109 66 126 83T165 101Q190 101 207 84T224 43Q224 17 205 2T165 -14ZM159 167L121 525Q118 554 114 583T110 642Q110 669 122 689T164 709Q198 709 210 689T223 642Q223 613 219 584T212 525L174 167H159Z"  />
<glyph unicode="&quot;" horiz-adv-x="340" d="M107 414Q106 408 105 396T94 383Q84 383 84 395T82 414L66 618Q65 627 65 641T66 668T75 690T97 699Q112 699 119 690T129 668T132 641T130 618L107 414ZM251 414Q250 408 249 396T238 383Q228 383 228 395T226 414L210 618Q209 627 209 641T210 668T219 690T241 699Q256 699 263 690T273 668T276 641T274 618L251 414Z"  />
<glyph unicode="#" horiz-adv-x="500" d="M315 281Q312 266 323 266H426Q434 266 436 262T436 250L426 211Q424 204 423 202T416 200H300Q293 200 290 191L244 11Q242 5 240 3T230 0Q223 0 220 2T221 16L266 191Q268 195 264 197T257 200H155Q150 200 149 199T145 192L97 8Q94 -1 84 -1Q81 -1 76 0T73 8L118 182Q120 190 119 195T112 200H12Q8 200 5 202T3 211L15 259Q17 266 23 266H135Q141 266 144 276L179 411Q181 420 177 422T168 425H72Q68 425 65 427T62 434L74 483Q76 491 82 491H194Q203 491 205 502L247 664Q250 675 258 675Q261 675 267 674T271 665L229 504Q228 499 229 495T237 491H339Q344 491 345 493T349 504L392 668Q395 675 403 675Q406 675 412 673T414 663L374 508Q373 505 373 498T383 491H490Q501 491 496 473L486 435Q483 425 475 425H362Q356 425 354 423T349 413L315 281ZM323 407Q325 415 324 420T315 425H217Q211 424 209 423T204 414L169 280Q167 275 167 271T176 266H278Q283 266 285 267T289 277L323 407Z"  />
<glyph unicode="$" horiz-adv-x="500" d="M278 29Q335 34 372 66T409 162Q409 190 398 211T368 249T326 277T278 298V29ZM237 646Q209 646 185 639T143 619T115 584T104 535Q104 509 116 489T148 453T191 426T237 405V646ZM278 390Q312 376 347 361T409 324T454 272T472 198Q472 156 456 122T414 62T352 20T278 0V-124H237V0Q210 1 173 6T101 22T43 49T19 89Q19 104 28 115T53 126Q71 126 87 113T124 82T172 49T237 29V314Q204 324 172 340T113 379T71 432T55 500Q55 539 70 571T110 627T168 662T237 675V752H278V675Q299 675 328 670T385 654T432 628T451 593Q451 581 444 570T422 559Q403 559 392 569T368 594T335 623T278 644V390Z"  />
<glyph unicode="%" horiz-adv-x="833" d="M690 701L172 -36H122L560 584L558 586Q533 574 505 566T448 557Q431 557 417 560T387 569Q384 533 368 488T324 403T262 336T186 308Q154 308 131 319T91 349T68 395T60 451Q60 493 79 535T131 610T204 664T288 685Q326 685 349 669T384 616Q386 605 394 600T413 592T435 589T455 588Q517 588 565 620T648 701H690ZM324 650Q299 659 275 650T228 619T187 569T155 508T134 449T126 403Q126 372 142 353T189 334Q223 334 254 362T310 429T348 512T361 586Q346 597 338 614T324 650ZM431 119Q431 162 450 204T501 280T574 335T659 356Q711 356 734 328T758 249Q758 210 742 163T699 75T633 7T550 -21Q520 -21 498 -9T461 22T439 67T431 119ZM672 325Q650 325 629 311T588 275T552 225T523 169T504 116T497 73Q497 47 512 26T557 5Q592 5 623 31T679 94T717 172T732 243Q732 260 731 275T723 301T705 318T672 325Z"  />
<glyph unicode="&amp;" horiz-adv-x="833" d="M255 402Q229 390 207 376T167 342T140 299T130 244Q130 211 139 179T168 122T215 82T280 66Q345 66 391 97T479 175Q457 209 431 238T375 296T316 350T255 402ZM324 464Q338 471 354 481T384 503T407 531T416 565Q416 584 408 602T386 633T354 655T317 663Q280 663 257 639T233 578Q233 558 242 543T266 514T296 488T324 464ZM585 488H807V467Q780 464 760 457T722 439T690 411T659 374L552 233Q565 218 585 190T626 132T669 77T705 43Q718 35 733 35Q752 35 768 44T794 69L814 58Q794 28 764 7T695 -14Q656 -14 628 2T576 44T534 100T493 157Q466 123 440 92T383 38T316 0T232 -14Q191 -14 157 0T98 41T58 101T44 177Q44 224 59 261T101 327T162 378T237 418Q225 427 212 439T188 466T169 495T162 528Q162 566 184 595T235 646Q259 664 290 681T352 699Q375 699 397 692T438 672T467 638T479 593Q479 566 465 545T430 507T386 476T343 447Q393 399 442 351T537 249Q546 265 566 289T605 340T640 391T655 433Q655 444 647 450T628 460T604 465T585 467V488Z"  />
<glyph unicode="&apos;" horiz-adv-x="200" d="M109 414Q108 408 107 396T96 383Q86 383 86 395T84 414L68 618Q67 627 67 641T68 668T77 690T99 699Q114 699 121 690T131 668T134 641T132 618L109 414Z"  />
<glyph unicode="(" horiz-adv-x="333" d="M278 687Q235 640 208 593T164 496T141 392T134 276Q134 161 166 55T281 -138L267 -150Q220 -109 180 -61T110 41T65 154T48 277Q48 340 65 397T111 508T180 610T263 701L278 687Z"  />
<glyph unicode=")" horiz-adv-x="333" d="M55 -136Q98 -89 125 -42T169 55T192 159T199 275Q199 390 167 496T52 689L66 701Q113 660 153 612T222 510T268 397T285 274Q285 211 268 154T222 43T153 -59T70 -150L55 -136Z"  />
<glyph unicode="*" horiz-adv-x="500" d="M230 535L233 538L171 639Q166 646 163 656T159 677Q160 685 165 691T182 698Q191 699 199 694T216 661L250 543H256L286 668Q291 688 301 693T322 699Q330 699 336 693T343 676Q343 667 340 660T332 645L272 536L276 531L378 595Q386 600 395 603T409 606Q420 606 428 601T437 583Q437 568 428 561T398 548L281 515L282 508L398 480Q424 474 430 464T437 441Q437 436 431 429T412 422Q406 422 396 426T381 433L273 493L268 490L332 387Q336 379 339 370T343 355Q343 344 338 336T320 328Q303 328 297 339T287 365L252 484H246L218 366Q214 349 206 338T180 327Q170 327 165 335T160 352Q160 358 164 367T171 382L231 491L227 496L125 433Q117 428 108 425T93 421Q81 421 73 429T64 444Q64 461 73 466T94 475L222 513V518L105 546Q80 552 72 561T64 582Q64 588 72 596T90 605Q98 605 106 602T121 594L230 535Z"  />
<glyph unicode="+" horiz-adv-x="560" d="M254 249V443H308V249H502V195H308V0H254V195H58V249H254Z"  />
<glyph unicode="&#x2c;" horiz-adv-x="250" d="M65 -139Q76 -131 88 -120T112 -96T130 -68T138 -39Q138 -20 122 -9Q108 -3 95 0T70 9T52 23T45 53Q45 76 61 90T100 104Q121 104 136 95T161 71T176 38T181 1Q181 -26 173 -49T149 -91T115 -127T75 -158L65 -139Z"  />
<glyph unicode="-" horiz-adv-x="333" d="M43 189V256H291V189H43Z"  />
<glyph unicode="." horiz-adv-x="250" d="M112 -11Q86 -11 71 7T56 46Q56 69 73 86T112 104Q137 104 154 87T171 46Q171 20 152 5T112 -11Z"  />
<glyph unicode="/" horiz-adv-x="278" d="M224 701H282L54 -107H-4L224 701Z"  />
<glyph unicode="0" horiz-adv-x="500" d="M242 -8Q203 -8 173 8T119 53T80 116T54 189T40 264T35 331Q35 379 47 438T85 550T153 639T255 675Q288 675 324 655T392 593T444 486T465 331Q465 280 454 221T418 110T349 26T242 -8ZM127 341Q127 321 128 289T132 220T144 146T166 79T202 30T255 11Q283 11 303 31T336 82T356 151T367 226T372 294T373 341Q373 360 372 390T368 456T357 527T337 591T304 638T255 656Q226 656 205 638T170 592T148 529T135 458T129 392T127 341Z"  />
<glyph unicode="1" horiz-adv-x="500" d="M118 0V20Q144 22 162 24T191 30T206 44T211 69V468Q211 515 203 530Q196 542 175 544T111 551V572Q149 579 176 593T224 622T257 652T280 675H297V69Q297 53 300 44T312 31T338 24T384 20V0H118Z"  />
<glyph unicode="2" horiz-adv-x="500" d="M322 76Q345 76 361 79T389 90T411 112T431 147L451 141L381 -52H367Q364 -19 354 -10T313 0H53Q52 32 63 63T90 123T126 178T163 225L248 335Q261 351 278 372T310 416T335 463T346 510Q346 556 320 586T246 616Q212 616 187 602T140 565T101 517T65 468L50 470Q67 503 90 539T142 606T207 655T285 675Q316 675 343 665T392 637T425 592T437 534Q437 501 425 475T389 420T331 358T253 278Q239 263 215 238T166 185T121 127T97 76H322Z"  />
<glyph unicode="3" horiz-adv-x="500" d="M69 552Q87 571 108 593T154 633T205 663T261 675Q293 675 315 666T352 641T372 608T379 572Q379 547 368 523T341 477T305 434T269 398Q304 393 334 379T388 341T424 287T437 219Q437 171 419 130T368 58T294 10T204 -8Q151 -8 117 5T64 35T37 67T29 87Q29 102 38 113T64 125Q79 125 89 117T108 96T125 68T146 41T175 20T218 11Q240 11 264 23T310 59T344 114T358 186Q358 225 342 252T301 296T242 319T174 323Q192 345 215 368T258 415T293 467T307 525Q307 567 285 589T217 612Q196 612 178 606T144 589T112 567T81 541L69 552Z"  />
<glyph unicode="4" horiz-adv-x="500" d="M287 260V589H285L56 260H287ZM12 240L326 684H373V260H472V198H373V0H287V198H12V240Z"  />
<glyph unicode="5" horiz-adv-x="500" d="M367 590H146L133 448Q165 443 192 442T246 435Q286 426 320 406T378 358T417 293T431 214Q431 181 420 142T380 70T306 15T190 -8Q174 -8 148 -5T97 8T54 32T35 70Q35 90 47 99T77 108Q93 108 103 93T127 60T160 26T211 11Q247 11 274 26T320 65T348 120T358 184Q358 225 344 256T306 309T248 343T177 359Q156 361 136 362T95 365L128 666H336Q358 666 367 672T391 696H412L367 590Z"  />
<glyph unicode="6" horiz-adv-x="500" d="M379 667Q329 646 292 620T227 561T179 486T144 394Q140 380 139 367T134 341L136 339Q164 372 198 389T277 406Q318 406 353 390T413 347T452 284T466 208Q466 159 450 120T404 52T334 8T246 -8Q189 -8 149 17T84 81T47 170T35 269Q35 347 61 414T133 536T242 628T379 684V667ZM124 215Q124 183 127 148T144 82T181 31T247 11Q283 11 308 29T348 75T370 136T377 199Q377 232 371 263T349 319T309 359T244 374Q211 374 189 360T152 323T131 272T124 215Z"  />
<glyph unicode="7" horiz-adv-x="500" d="M446 639L226 29Q218 6 208 -6T170 -18Q165 -18 158 -18T145 -16T134 -11T129 1Q129 4 146 43T191 141L395 590H129Q120 590 114 587T103 579Q92 568 88 550T75 515H53L113 696H129Q129 677 135 673T157 668Q177 666 196 666T234 666H446V639Z"  />
<glyph unicode="8" horiz-adv-x="500" d="M209 333Q164 298 139 257T114 157Q114 127 123 100T151 54T194 23T252 11Q283 11 309 22T353 53T382 100T392 157Q392 197 375 224T331 271T272 304T209 333ZM285 392Q327 418 351 451T375 536Q375 591 341 623T252 656Q198 656 165 625T131 537Q131 506 147 484T186 446T236 418T285 392ZM307 384Q341 368 368 350T415 308T445 254T456 184Q456 136 439 100T393 40T324 4T241 -8Q205 -8 170 4T108 38T63 91T45 161Q45 197 57 224T89 272T136 310T190 343Q163 357 140 372T99 406T72 451T62 509Q62 548 78 578T121 630T182 663T253 675Q284 675 317 666T379 639T425 594T444 531Q444 502 432 480T399 439T355 408T307 384Z"  />
<glyph unicode="9" horiz-adv-x="500" d="M122 -1Q229 43 291 127T366 325L364 327Q348 310 333 298T302 277T267 265T224 260Q182 260 148 275T88 317T48 380T34 457Q34 503 50 543T95 612T163 658T249 675Q307 675 348 651T415 587T454 497T467 397Q467 320 441 252T368 130T258 38T122 -17V-1ZM378 456Q378 484 374 518T357 583T321 635T261 656Q223 656 197 639T154 594T130 533T123 467Q123 434 129 403T151 347T192 307T256 292Q290 292 313 307T350 345T371 398T378 456Z"  />
<glyph unicode=":" horiz-adv-x="250" d="M112 -11Q86 -11 71 7T56 46Q56 69 73 86T112 104Q137 104 154 87T171 46Q171 20 152 5T112 -11ZM112 317Q86 317 71 335T56 374Q56 397 73 414T112 432Q137 432 154 415T171 374Q171 348 152 333T112 317Z"  />
<glyph unicode=";" horiz-adv-x="250" d="M65 -139Q76 -131 88 -120T112 -96T130 -68T138 -39Q138 -20 122 -9Q108 -3 95 0T70 9T52 23T45 53Q45 76 61 90T100 104Q121 104 136 95T161 71T176 38T181 1Q181 -26 173 -49T149 -91T115 -127T75 -158L65 -139ZM111 317Q85 317 70 335T55 374Q55 397 72 414T111 432Q136 432 153 415T170 374Q170 348 151 333T111 317Z"  />
<glyph unicode="&lt;" horiz-adv-x="560" d="M58 248L502 443V389L119 222L502 55V0L58 198V248Z"  />
<glyph unicode="=" horiz-adv-x="560" d="M502 315V261H58V315H502ZM502 184V130H58V184H502Z"  />
<glyph unicode="&gt;" horiz-adv-x="560" d="M502 195L58 0V54L441 221L58 388V443L502 245V195Z"  />
<glyph unicode="?" horiz-adv-x="389" d="M147 182H123L118 413Q146 413 178 414T238 425T284 455T303 513Q303 545 286 567T240 600Q222 607 198 609T153 616T117 628T102 657Q102 678 115 689T149 701Q188 701 221 684T278 638T316 574T330 502Q330 458 317 429T281 381T226 354T153 342L147 182ZM135 -14Q109 -14 94 4T79 43Q79 66 96 83T135 101Q160 101 177 84T194 43Q194 17 175 2T135 -14Z"  />
<glyph unicode="@" horiz-adv-x="740" d="M485 413Q485 480 440 480Q421 480 396 467T349 428T312 365T296 280Q296 233 315 214T362 194Q378 194 397 208T434 249T466 318T485 413ZM513 512H586L518 249Q516 243 515 232T517 210T528 191T555 183Q587 183 612 203T655 255T682 323T692 394Q692 438 672 486T613 575T518 641T389 667Q329 667 276 645T182 578T118 468T94 316Q94 260 116 208T178 116T274 51T399 26Q434 26 462 30T515 41T562 57T607 76L620 45Q569 22 516 4T400 -14Q297 -14 223 19T100 104T29 215T6 327Q6 410 36 478T119 596T241 672T389 699Q462 699 525 676T634 613T707 516T734 395Q734 355 721 312T684 232T623 172T539 148Q513 148 495 157T466 180T450 204T445 221H443Q438 215 428 203T401 178T365 157T322 148Q311 148 294 151T261 168T233 208T221 278Q221 305 233 347T271 429T336 497T428 526Q446 526 458 521T478 509T492 491T503 472L513 512Z"  />
<glyph unicode="A" horiz-adv-x="667" d="M11 0V21Q33 23 50 36T75 69L279 601L261 631Q286 645 305 666T342 709L576 113Q584 92 591 76T608 49T630 31T664 21V0H403V21Q414 21 428 21T456 26T478 38T487 61Q487 72 478 98T458 156T435 216T418 262H179Q175 248 164 220T141 160T120 101T111 64Q111 49 119 41T141 29T167 24T192 21V0H11ZM190 289H407L294 572L190 289Z"  />
<glyph unicode="B" horiz-adv-x="667" d="M233 78Q233 39 255 28T315 17Q399 17 442 58T485 184Q485 239 468 271T422 319T355 340T275 345H233V78ZM233 366H280Q314 366 344 374T398 401T434 449T448 520Q448 567 428 604T362 658Q336 668 300 669T233 671V366ZM58 21Q71 22 84 23T107 28T125 40T132 64V621Q132 640 126 649T110 661T87 665T58 669V690Q112 691 167 691T279 692Q330 693 378 689T472 661Q508 643 528 606T549 529Q549 467 517 428T426 373V371Q462 366 492 351T545 313T581 258T594 189Q594 137 572 101T498 34Q477 22 451 15T398 3T344 -2T293 -4Q233 -4 174 -2T58 0V21Z"  />
<glyph unicode="C" horiz-adv-x="722" d="M641 669H657V436H639Q633 485 614 529T564 606T491 658T396 678Q361 678 330 667T271 635T222 588T185 531Q164 487 156 434T148 332Q148 299 151 271T162 217T182 166T211 112Q237 68 284 38T390 7Q442 7 484 25T559 74T611 146T641 235H660V12H639L611 59Q560 25 505 6T387 -14Q306 -14 241 10T131 80T61 191T36 338Q36 416 62 482T137 597T251 672T396 699Q457 699 507 679T609 626L641 669Z"  />
<glyph unicode="D" horiz-adv-x="833" d="M234 95Q234 66 242 50T267 27T307 17T360 15Q432 14 489 36T587 100T649 200T671 330Q671 494 590 584T341 675Q313 675 293 673T259 662T240 640T234 600V95ZM59 690Q137 691 215 693T372 696Q489 696 568 667T694 589T762 476T783 340Q783 166 675 80T351 -6Q278 -6 206 -3T61 0V21Q97 21 115 30T133 77V613Q133 632 127 643T111 660T87 667T59 669V690Z"  />
<glyph unicode="E" horiz-adv-x="722" d="M65 0V21Q101 21 122 30T143 77V613Q143 632 137 643T119 660T94 667T62 669V690H572L621 529L600 524Q579 557 555 587Q517 636 478 652T396 669H244V362H299Q337 362 364 366T410 383T441 421T463 488H479V200H463Q459 242 449 268T420 309T375 329T312 335H244V70Q244 53 249 44T264 29T286 23T313 21H425Q443 21 458 23T486 30T513 45T541 69Q567 95 589 123T632 184L649 179L609 0H65Z"  />
<glyph unicode="F" horiz-adv-x="667" d="M63 0V21Q101 21 119 30T137 77V613Q137 632 132 643T116 660T91 667T61 669V690H567L618 536L600 532Q585 558 566 579T525 620Q506 637 491 646T459 661T423 667T380 669H238V361H313Q341 364 363 366T403 377T433 408T454 470H470V214H454Q450 254 439 278T410 316T368 334T313 340H238V67Q238 43 258 33T331 21V0H63Z"  />
<glyph unicode="G" horiz-adv-x="778" d="M680 472H659Q644 512 624 549T576 615T511 661T426 678Q388 678 342 659T255 599T187 491T160 330Q160 235 183 173T242 73T320 22T400 7Q478 7 523 48T568 167V241Q568 259 565 270T552 287T526 297T482 302V323H742V302Q719 300 705 297T683 287T672 271T669 247V71Q605 35 537 11T393 -14Q331 -14 270 6T159 68T79 175T48 330Q48 424 79 493T160 608T274 676T402 699Q462 699 518 685T625 635L659 678H674L680 472Z"  />
<glyph unicode="H" horiz-adv-x="833" d="M56 0V21Q71 21 85 22T109 30T126 47T133 77V613Q133 632 127 643T111 660T87 667T59 669V690H329V669Q284 669 259 660T234 613V363H600V613Q600 632 594 643T576 660T548 667T512 669V690H778V669Q763 669 749 668T725 660T708 643T701 613V77Q701 39 720 30T776 21V0H512V21Q531 21 547 22T575 30T593 47T600 77V336H234V77Q234 39 253 30T318 21V0H56Z"  />
<glyph unicode="I" horiz-adv-x="389" d="M52 0V21Q94 21 118 30T143 77V613Q143 651 119 660T52 669V690H337V669Q294 669 269 660T244 613V77Q244 39 269 30T337 21V0H52Z"  />
<glyph unicode="J" horiz-adv-x="389" d="M341 690V669Q330 669 317 668T291 663T271 651T263 627V131Q263 60 252 10T224 -72T185 -123T142 -151T103 -163T73 -165Q42 -165 18 -151T-7 -101Q-7 -80 7 -65T42 -49Q75 -49 87 -69T108 -116Q112 -127 119 -129T137 -132Q148 -132 153 -120T160 -93T162 -62T162 -41V590Q162 616 157 631T142 653T115 664T74 669V690H341Z"  />
<glyph unicode="K" horiz-adv-x="722" d="M61 0V21Q97 21 115 30T133 77V613Q133 632 127 643T111 660T87 667T59 669V690H316V669Q299 669 284 668T258 660T241 643T234 613V332L452 565Q464 578 479 597T494 634Q494 647 486 654T465 664T441 668T420 669V690H656V669Q611 669 574 646T508 590L334 405L621 45Q633 29 654 25T693 21V0H535L266 331L234 299V77Q234 58 240 47T258 30T284 23T318 21V0H61Z"  />
<glyph unicode="L" horiz-adv-x="722" d="M51 0V21Q92 21 111 30T130 77V613Q130 632 124 643T107 660T82 667T53 669V690H326V669Q275 669 253 655T231 603V100Q231 71 236 55T255 32T293 23T353 21Q384 21 415 22T477 28Q517 35 541 56T588 110Q626 162 660 223H681L624 0H51Z"  />
<glyph unicode="M" horiz-adv-x="944" d="M30 0V21Q70 21 94 30T119 77V622Q118 638 111 647T93 660T68 666T40 669V690H212L476 124L725 690H883V669Q863 667 849 665T826 656T813 637T809 604V77Q809 39 828 30T883 21V0H623V21Q650 23 666 25T691 34T703 50T708 77V602H706L446 0H428L148 595H146V77Q146 45 171 33T238 21V0H30Z"  />
<glyph unicode="N" horiz-adv-x="833" d="M146 582V77Q146 51 166 37T238 21V0H31V21Q49 23 64 24T91 31T109 47T118 77V78Q118 78 119 80V611Q99 633 79 650T32 669V690H181L676 147V605Q676 624 671 635T655 654T628 664T588 669V690H794V669Q742 661 723 646T703 606V-8H688L146 582Z"  />
<glyph unicode="O" horiz-adv-x="778" d="M630 338Q630 431 605 495T544 600T467 659T392 678Q347 678 303 658T225 595T169 486T148 329Q148 264 163 206T208 103T281 33T380 7Q444 7 491 38T569 117T615 223T630 338ZM385 699Q448 699 510 678T623 612T705 499T737 337Q737 308 731 271T709 195T667 119T602 52T507 4T380 -14Q313 -14 262 3T173 48T110 113T70 188T48 264T41 333Q41 408 59 464T108 561T176 628T252 671T325 693T385 699Z"  />
<glyph unicode="P" horiz-adv-x="611" d="M203 315H236Q287 315 326 319T393 341T434 395T449 497Q449 536 440 568T412 623T364 658T293 671Q268 671 251 670T223 663T208 646T203 613V315ZM28 690Q99 692 171 692T316 692Q365 692 409 680T486 643T538 579T558 486Q558 431 534 395T471 336T386 304T293 294H203V77Q203 58 209 47T227 30T255 23T291 21V0H30V21Q51 21 64 22T86 30T98 47T102 77V613Q102 651 84 660T28 669V690Z"  />
<glyph unicode="Q" horiz-adv-x="778" d="M630 338Q630 433 605 498T544 603T467 660T392 678Q343 678 299 656T222 590T168 481T148 329Q148 277 161 221T202 117T274 38T380 7Q444 7 491 38T569 117T615 223T630 338ZM673 -9Q670 -42 655 -72T615 -124T558 -160T489 -173Q447 -173 412 -160T346 -131Q317 -115 293 -102T249 -89Q229 -89 223 -101T215 -128Q213 -142 209 -154T190 -167Q174 -167 166 -158T158 -133Q158 -117 168 -103T193 -83L352 -14V-12Q281 -8 224 20T126 95T63 203T41 333Q41 435 76 504T163 617T275 680T385 699Q440 699 502 680T616 618T702 506T737 337Q737 260 712 197T641 87T532 14T392 -14L276 -63L278 -65Q292 -62 308 -59T340 -56Q364 -56 387 -60T432 -70T477 -80T524 -85Q566 -85 600 -68T650 -9H673Z"  />
<glyph unicode="R" horiz-adv-x="722" d="M331 337Q409 343 449 386T489 507Q489 585 443 629T317 673Q279 673 260 663T241 613V333Q264 333 286 334T331 337ZM70 690Q137 690 205 692T343 694Q388 694 433 685T515 653T575 595T598 506Q598 467 587 438T555 387T505 350T441 323Q465 298 489 268T535 206T577 141T612 77Q639 21 708 21V0H542Q526 27 504 64T458 139T408 212T360 271Q337 296 305 303T241 312V77Q241 58 245 47T260 30T287 23T326 21V0H66V21Q108 21 125 30T140 77V613Q140 651 123 660T70 669V690Z"  />
<glyph unicode="S" horiz-adv-x="556" d="M49 209H69Q74 169 87 133T122 68T179 24T260 7Q310 7 341 22T390 60T414 108T421 152Q421 190 406 213T366 250T312 273T254 293Q211 307 177 322T119 360T83 415T70 498Q70 544 87 581T133 644T201 684T284 699Q326 699 369 685T445 642L475 668H489V463H471Q466 482 460 503T447 547T430 588T407 623Q385 648 358 663T297 678Q226 678 189 636T151 524Q151 491 162 470T193 435T236 412T287 395Q328 383 367 367T438 327T489 268T508 183Q508 130 489 93T437 32T361 -3T270 -14Q224 -14 181 -1T99 37L61 0H49V209Z"  />
<glyph unicode="T" horiz-adv-x="778" d="M342 669H178Q164 669 155 666T138 658T124 645T108 627Q85 601 68 571T27 513L14 520L56 706Q77 700 98 695T143 690H641Q664 690 685 695T728 706L765 519L751 512Q732 541 716 571T676 627Q667 637 661 645T647 658T630 666T606 669H443V77Q443 45 462 34T536 21V0H251V21Q303 23 322 34T342 77V669Z"  />
<glyph unicode="U" horiz-adv-x="778" d="M56 690H317V669Q289 669 272 665T245 652T232 627T229 592V191Q229 164 235 132T262 73T321 26T421 7Q483 7 523 25T585 74T616 145T625 229V592Q625 618 619 632T599 654T567 664T521 669V690H737V669Q697 669 675 652T652 592V229Q652 177 641 133T600 56T519 5T390 -14Q314 -14 264 5T183 55T141 129T128 218V592Q128 617 126 631T117 654T95 665T56 669V690Z"  />
<glyph unicode="V" horiz-adv-x="667" d="M5 690H264V669Q255 668 240 667T211 663T187 652T177 632Q177 627 180 617T187 597T194 578T199 567L375 133H377L522 511Q536 548 545 580T555 627Q555 642 545 650T520 663T489 668T463 669V690H655V669Q634 667 619 653T592 619T572 578T558 540L346 -14H329L110 532Q93 574 80 601T55 652Q49 664 34 666T5 669V690Z"  />
<glyph unicode="W" horiz-adv-x="944" d="M7 690H248V669Q216 668 194 664T172 640Q172 637 178 622L350 145H352L476 498L444 588Q437 608 428 626T406 653Q392 664 375 666T340 669V690H625V669Q611 668 596 667T568 661T547 647T539 619Q539 614 543 601T552 573T561 544T568 525L698 152H700L765 367Q771 388 782 422T804 492T823 563T831 620Q831 637 824 646T804 660T778 666T750 669V690H931V669Q908 665 893 649T868 612T852 567T839 524L672 -14H654L489 466H487L321 -14H304L80 578Q71 601 66 620T48 652Q34 666 7 669V690Z"  />
<glyph unicode="X" horiz-adv-x="722" d="M7 0V21Q29 23 42 25T65 33T83 47T105 72L314 329L160 546Q137 579 121 601T88 637T53 659T5 669V690H303V669Q269 668 244 664T219 638Q219 632 223 624T234 606T247 587T258 573L383 399L484 522Q491 531 502 543T523 569T540 597T547 625Q547 639 539 647T518 659T492 665T468 669V690H704V669Q654 660 624 639Q608 628 595 615T568 584T538 547T502 502L398 377L542 173Q571 133 588 101T628 49Q643 35 661 28T708 21V0H412V21Q423 22 437 23T464 27T485 36T494 52Q494 63 489 74T477 93Q439 146 403 200T328 307Q321 296 305 276T270 232T231 182T193 131T166 87T155 56Q155 44 165 38T190 28T219 23T243 21V0H7Z"  />
<glyph unicode="Y" horiz-adv-x="611" d="M7 690H259V669Q250 669 237 669T213 665T194 654T186 633Q186 628 196 609T220 566T246 521T263 493L346 352Q353 365 367 387T399 437T435 493T469 548T494 596T504 631Q504 643 498 650T481 661T460 666T440 669V690H604V669Q581 664 569 653T544 623L357 324V77Q357 58 363 47T380 30T405 23T435 21V0H182V21Q196 21 209 22T233 30T250 47T256 77V310L97 587Q89 599 81 613T62 640T38 661T7 669V690Z"  />
<glyph unicode="Z" horiz-adv-x="667" d="M130 690H625L155 21H380Q416 21 438 23T476 34T508 58T547 101Q556 111 568 126T592 157T614 190T631 220L648 216L580 0H20L493 669H296Q276 669 262 668T236 662T213 648T188 625Q157 592 130 556T74 485L57 493L130 690Z"  />
<glyph unicode="[" horiz-adv-x="333" d="M98 -150V701H289V674H228Q204 674 191 667T177 631V-80Q177 -109 190 -116T228 -123H289V-150H98Z"  />
<glyph unicode="\" horiz-adv-x="500" d="M393 -107H335L107 701H165L393 -107Z"  />
<glyph unicode="]" horiz-adv-x="333" d="M235 701V-150H44V-123H105Q129 -123 142 -116T156 -80V631Q156 660 143 667T105 674H44V701H235Z"  />
<glyph unicode="^" horiz-adv-x="560" d="M40 218L255 690H304L521 218H467L279 626L94 218H40Z"  />
<glyph unicode="_" horiz-adv-x="500" d="M500 -75V-125H0V-75H500Z"  />
<glyph unicode="`" horiz-adv-x="278" d="M176 493L21 590Q13 595 3 605T-8 627Q-8 664 27 664Q38 664 49 657T68 641L215 493H176Z"  />
<glyph unicode="a" horiz-adv-x="444" d="M271 231Q254 223 227 213T174 189T129 157T110 116Q110 85 130 63T182 41Q211 41 230 52T271 80V231ZM271 362Q271 392 254 403T209 414Q195 414 180 410T152 400T130 385T121 366Q121 361 121 357T122 344Q122 315 113 297T71 279Q57 279 49 290T41 313Q41 330 51 345T77 374Q111 403 159 423T253 443Q299 443 323 417T347 346V78Q347 72 347 64T350 48T356 36T370 31Q382 31 389 43T398 65H414Q410 29 394 9T341 -11Q313 -11 293 10T272 58Q254 45 239 33T207 11T173 -5T131 -11Q114 -11 98 -5T70 13T50 40T42 74Q42 115 66 143T126 192T201 226T271 253V362Z"  />
<glyph unicode="b" horiz-adv-x="556" d="M90 -8V592Q90 603 88 612T72 628Q64 633 55 634T36 638V645L169 699V385Q207 414 242 428T326 443Q369 443 403 425T461 376T497 308T510 229Q510 217 508 195T498 146T475 92T434 41T370 4T279 -11Q239 -11 202 -3T126 20L103 -8H90ZM425 214Q425 248 418 282T394 343T350 388T282 406Q255 406 237 401T205 386T184 367T169 348V128Q169 103 176 82T196 44T230 18T277 8Q310 8 334 20T374 53T401 97T416 144T423 185T425 214Z"  />
<glyph unicode="c" horiz-adv-x="444" d="M415 131Q388 67 346 28T230 -11Q180 -11 143 8T80 61T43 136T30 225Q30 269 47 308T93 378T161 425T244 443Q265 443 293 437T346 418T389 386T407 340Q407 322 399 311T370 299Q353 299 345 308T332 331T324 361T312 391T288 414T245 424Q208 424 183 406T143 359T122 297T115 233Q115 198 124 164T151 103T197 58T265 41Q312 41 346 68T400 136L415 131Z"  />
<glyph unicode="d" horiz-adv-x="556" d="M382 281Q382 328 368 356T335 400T295 419T263 424Q224 424 199 406T158 359T136 297T130 231Q130 167 146 128T186 67T234 38T275 30Q307 30 334 44T382 82V281ZM382 570Q382 587 380 603T357 628Q347 633 339 634T320 635V644Q356 657 390 672T461 699V50L513 34V27L382 -11V58H380Q328 -11 242 -11Q195 -11 160 7T99 57T62 128T49 211Q49 261 63 303T106 377T174 425T266 443Q296 443 325 435T382 412V570Z"  />
<glyph unicode="e" horiz-adv-x="500" d="M121 293Q119 279 118 265T116 236Q116 197 128 164T164 106T220 69T293 55Q342 55 383 82T444 154L461 149Q437 78 386 34T257 -11Q206 -11 166 5T98 52T55 123T40 216Q40 261 56 302T100 374T168 424T254 443Q328 443 383 406T456 293H121ZM335 316Q333 337 328 356T313 390T285 413T244 422Q220 422 202 413T169 390T145 356T128 316H335Z"  />
<glyph unicode="f" horiz-adv-x="333" d="M46 0V19Q65 20 78 21T98 28T108 43T111 74V382H39L49 425H111V465Q113 543 134 589T183 660T241 691T291 699Q307 699 326 695T362 682T389 659T400 625Q400 606 389 594T358 582Q338 582 328 595T309 625T288 654T252 668Q218 668 204 639T190 569V425H296L286 382H190V74Q190 54 193 44T204 28T227 22T266 19V0H46Z"  />
<glyph unicode="g" horiz-adv-x="500" d="M91 -104Q91 -139 108 -158T152 -186T209 -196T265 -198Q288 -198 316 -195T370 -183T413 -155T431 -107Q431 -87 424 -74T404 -52T375 -39T341 -35Q317 -35 289 -35T233 -33T183 -29T144 -21Q135 -25 126 -34T109 -54T96 -79T91 -104ZM155 293Q155 273 159 252T172 213T198 184T240 172Q265 172 282 183T309 212T323 252T328 295Q328 316 324 338T310 379T283 410T241 422Q215 422 199 410T173 379T159 337T155 293ZM235 443Q270 443 301 433T361 403Q369 408 379 414T400 425Q411 430 421 434T442 438Q459 438 470 427T481 399Q481 385 473 377T450 368Q439 368 431 374T413 386T395 394T374 387Q391 366 398 348T406 301Q406 264 393 236T356 189T302 160T237 150Q220 150 202 153T167 161Q150 150 135 137T119 100Q119 75 134 63T172 47T218 42T259 41Q290 39 329 36T403 21T461 -15T485 -83Q485 -129 460 -155T398 -195T319 -211T243 -215Q220 -215 185 -213T116 -201T60 -173T36 -121Q36 -81 63 -54T125 -12Q102 2 88 22T74 71Q74 111 94 132T148 171Q110 191 93 223T76 299Q76 332 89 358T125 403T175 432T235 443Z"  />
<glyph unicode="h" horiz-adv-x="556" d="M39 0V19Q56 20 67 21T85 28T94 43T97 74V594Q97 617 82 626T46 640V648Q78 662 111 674T176 699V372Q192 387 207 400T240 422T276 437T318 443Q353 443 383 428T430 382Q446 356 450 330T455 275V74Q455 54 457 44T467 28T484 22T512 19V0H322V19Q337 20 347 21T364 28T373 43T376 74V275Q376 287 376 296T375 313T370 331T362 351Q350 373 330 387T281 402Q259 402 244 396T218 381T196 361T176 339V74Q176 54 178 44T187 28T204 22T231 19V0H39Z"  />
<glyph unicode="i" horiz-adv-x="278" d="M43 0V19Q60 20 71 21T89 28T98 43T101 74V314Q101 330 99 348T83 375Q73 380 66 381T47 385V395Q114 423 180 448V74Q180 54 182 44T191 28T208 22T235 19V0H43ZM136 699Q156 699 170 683T184 648Q184 628 171 612T136 596Q115 596 100 611T84 648Q84 669 99 684T136 699Z"  />
<glyph unicode="j" horiz-adv-x="278" d="M197 -35Q197 -66 189 -98T164 -156T121 -198T57 -215Q46 -215 34 -213T10 -204T-8 -189T-16 -165Q-16 -150 -7 -138T19 -126Q37 -126 47 -135T64 -154T79 -174T98 -183Q110 -183 114 -173T118 -155V317Q118 339 115 350T103 370Q97 376 88 380T68 389V396Q100 409 132 422T197 448V-35ZM150 699Q170 699 185 684T200 648Q200 628 185 612T150 596Q129 596 115 612T100 648Q100 668 115 683T150 699Z"  />
<glyph unicode="k" horiz-adv-x="556" d="M35 0V19Q52 20 63 21T81 28T90 43T93 74V588Q93 614 82 624T44 639V647Q76 659 108 672T172 699V244L308 340Q318 348 331 359T345 384Q345 393 335 398T310 407T283 411T264 413V432H488V413Q456 410 429 397T376 365T325 327T274 291L439 87Q463 57 485 38T544 19V0H313V19Q319 19 328 19T346 22T361 28T368 41Q368 54 356 66T336 89L213 247L172 216V74Q172 54 174 44T183 28T201 22T228 19V0H35Z"  />
<glyph unicode="l" horiz-adv-x="278" d="M180 74Q180 54 182 44T191 28T208 22T235 19V0H43V19Q60 20 71 21T89 28T98 43T101 74V563Q101 582 100 598T87 626Q80 632 70 636T44 641V653Q79 662 113 675T180 699V74Z"  />
<glyph unicode="m" horiz-adv-x="833" d="M41 0V19Q57 20 68 21T85 28T94 43T97 74V330Q97 356 84 367T48 388V396Q83 403 113 417T174 443V362Q190 380 205 395T238 420T275 437T321 443Q366 443 397 419T448 355Q463 372 478 388T512 416T550 435T594 443Q628 443 655 428T701 390T730 338T740 282V74Q739 54 740 44T748 28T766 22T800 19V0H605V19Q623 20 634 21T651 28T659 43T661 74V286Q661 337 636 368T558 399Q541 399 524 392T492 373T468 345T458 311V74Q458 54 461 44T472 28T489 22T513 19V0H323V19Q342 20 353 21T370 28T377 44T379 75V292Q379 340 359 369T284 399Q257 399 237 390T204 367T183 341T176 321V74Q176 54 179 44T189 28T206 22T229 19V0H41Z"  />
<glyph unicode="n" horiz-adv-x="556" d="M41 0V19Q58 20 69 21T87 28T96 43T99 74V322Q99 351 88 364T50 385V396Q84 406 115 418T178 443V367Q193 383 207 396T237 420T271 437T314 443Q341 443 367 433T414 405T447 363T460 311V74Q460 54 464 44T477 28T497 22T521 19V0H323V19Q340 20 351 21T369 28T378 43T381 74V294Q381 342 356 370T281 399Q265 399 247 392T214 372T188 344T178 311V74Q178 54 180 44T189 28T207 22T234 19V0H41Z"  />
<glyph unicode="o" horiz-adv-x="500" d="M462 216Q462 169 447 128T404 55T337 7T250 -11Q202 -11 163 6T96 55T53 127T38 216Q38 263 53 304T96 376T163 425T250 443Q298 443 337 425T404 377T447 305T462 216ZM377 216Q377 254 370 291T348 358T309 406T250 424Q215 424 191 406T152 359T130 292T123 216Q123 178 130 141T152 74T191 26T250 8Q285 8 309 26T348 73T370 140T377 216Z"  />
<glyph unicode="p" horiz-adv-x="556" d="M36 -215V-196Q63 -194 77 -189T94 -154V333Q94 350 90 359T77 374Q70 379 61 381T41 388V395Q76 405 108 418T173 443V397Q192 409 208 418T240 432T273 440T314 443Q360 443 396 426T457 380T494 312T507 229Q507 170 489 125T438 50T359 5T256 -11Q236 -11 215 -5T173 8V-154Q175 -183 192 -188T249 -196V-215H36ZM173 220Q173 180 175 142T188 74T221 26T284 8Q289 8 301 10T328 18T360 37T390 71T413 124T422 201Q422 240 413 276T384 342T333 388T259 406Q235 406 211 397T173 376V220Z"  />
<glyph unicode="q" horiz-adv-x="556" d="M248 -11Q200 -11 162 6T98 52T58 121T44 207Q44 260 61 303T109 378T185 426T282 443Q300 443 317 440T351 433T381 426T406 422Q420 422 435 431T462 449V-154Q462 -183 474 -188T522 -196V-215H314V-196Q348 -194 365 -189T383 -154V42Q356 18 321 4T248 -11ZM383 350Q383 370 375 384T352 407T321 420T284 424Q254 424 227 413T177 376T142 308T129 204Q129 172 137 138T162 77T206 32T271 14Q290 14 310 20T346 39T373 68T383 107V350Z"  />
<glyph unicode="r" horiz-adv-x="333" d="M37 0V19Q53 20 64 21T81 28T90 43T93 74V327Q93 342 91 350T83 364T69 374T47 385V395Q79 406 109 420T170 446V374Q179 385 190 398T213 422T240 442T270 450Q292 450 307 439T323 404Q323 387 312 377T285 366Q273 366 260 374T226 383Q220 383 211 379T193 367T178 353T172 339V74Q172 54 175 44T185 28T204 22T236 19V0H37Z"  />
<glyph unicode="s" horiz-adv-x="389" d="M50 139H62Q69 117 77 94T97 51T128 20T176 8Q220 8 241 31T263 98Q263 121 253 136T227 164T192 185T156 204Q135 216 116 227T83 253T60 285T51 330Q51 358 63 379T94 414T137 436T187 443Q221 443 253 433T318 412V306H302Q297 328 288 349T263 387T228 414T183 424Q151 424 133 404T114 353Q114 331 130 316T172 288T226 261T281 229T322 186T339 124Q339 90 326 65T290 23T238 -2T178 -11Q144 -11 112 -4T50 21V139Z"  />
<glyph unicode="t" horiz-adv-x="333" d="M165 382V118Q165 80 179 60T234 39Q254 39 276 51T315 75Q322 71 322 67T320 58T312 49T303 41Q283 17 253 3T190 -11Q163 -11 144 -2T112 24T94 62T88 108V382H36V391Q68 422 101 451T163 513H165V432H313L289 382H165Z"  />
<glyph unicode="u" horiz-adv-x="556" d="M378 -11V59Q349 27 309 8T225 -11Q186 -11 161 -2T122 23T102 63T97 113V387Q97 402 85 407T38 413V432H176V87Q176 68 183 56T203 36T232 26T266 23Q323 23 350 58T379 146V387Q379 402 368 407T321 413V432H458V91Q458 74 463 66T477 53T495 48T511 47V34L378 -11Z"  />
<glyph unicode="v" horiz-adv-x="500" d="M15 432H226V413Q219 413 208 413T187 410T169 402T161 386Q161 381 164 370T174 341L270 94L383 346Q388 356 391 365T394 386Q394 397 387 402T369 410T348 413T330 413V432H485V413Q456 413 441 398T414 356L248 -11H231L85 355Q79 369 75 379T63 397T45 408T15 413V432Z"  />
<glyph unicode="w" horiz-adv-x="722" d="M12 432H222V413Q216 413 205 413T183 410T164 404T156 390Q156 385 160 373L264 96L359 325L343 368Q335 389 325 401T287 413V432H484V413Q476 413 466 413T446 410T429 401T422 384Q422 382 423 376T427 362L514 104H516L612 359Q614 365 616 371T619 385Q619 395 613 400T598 409T580 412T563 413V432H711V413Q679 413 664 398T637 353L493 -11H475L370 293L245 -11H227L88 328Q85 336 81 347T71 370T60 392T47 406Q39 411 30 412T12 413V432Z"  />
<glyph unicode="x" horiz-adv-x="500" d="M9 0V19Q37 21 50 21T71 28Q82 37 91 51T113 82L213 209L81 385Q67 404 53 408T16 413V432H219V413Q216 413 208 413T193 412T179 408T173 400Q173 394 178 385T190 366T204 347T214 333L261 267L320 342Q332 357 340 370T349 392Q349 400 341 404T322 410T301 412T284 413V432H467V413Q446 413 432 411T407 402T387 386T364 359L277 248L382 105Q400 81 412 65T435 39T460 24T492 19V0H259V19Q289 19 307 23T326 41Q326 54 309 78T272 129L227 188L164 104Q160 99 153 90T139 72T127 53T121 37Q121 27 141 23T189 19V0H9Z"  />
<glyph unicode="y" horiz-adv-x="500" d="M8 432H225V413Q217 413 205 413T180 410T160 401T151 385Q151 383 154 375T163 355L300 100L380 331Q391 366 391 380Q391 392 384 398T365 408T342 412T320 413V432H489V413Q453 413 439 399T413 352L252 -110Q246 -128 238 -146T220 -180T194 -205T157 -215Q140 -215 130 -203T119 -175Q119 -157 129 -146T157 -134Q165 -135 173 -137T189 -140Q210 -142 220 -125T236 -92L267 7L73 361Q64 377 59 386T49 400T35 407T8 413V432Z"  />
<glyph unicode="z" horiz-adv-x="444" d="M24 0L302 413H170Q145 413 129 407T100 389T76 358T49 314L31 317L63 432H406L125 19H197Q248 19 277 21T327 34T364 71T407 142L421 135L391 0H24Z"  />
<glyph unicode="{" horiz-adv-x="333" d="M193 414Q193 387 190 365T177 325T146 295T91 277V275Q125 269 145 257T176 227T190 187T193 137V-35Q193 -76 211 -102T287 -142V-150Q235 -150 202 -142T149 -117T122 -71T114 0V164Q114 188 111 206T97 238T69 260T20 276Q50 282 68 291T97 313T110 344T114 387V551Q114 593 121 621T148 667T201 693T287 701V693Q231 681 212 655T193 586V414Z"  />
<glyph unicode="|" horiz-adv-x="278" d="M166 750V-250H112V750H166Z"  />
<glyph unicode="}" horiz-adv-x="333" d="M140 137Q140 164 143 186T156 226T187 256T242 274V276Q208 282 188 294T157 324T143 364T140 414V586Q140 627 122 653T46 693V701Q98 701 131 693T184 668T211 622T219 551V387Q219 363 222 345T236 313T264 291T313 275Q283 269 265 260T236 238T223 207T219 164V0Q219 -42 212 -70T185 -116T132 -142T46 -150V-142Q102 -130 121 -104T140 -35V137Z"  />
<glyph unicode="~" horiz-adv-x="560" d="M502 256Q491 239 479 223T453 194T422 174T383 166Q360 166 341 173T301 188L263 204Q244 211 224 219T183 227Q150 227 131 206T95 157L58 184Q70 203 82 220T109 251T142 271T185 279Q209 279 235 270T289 249Q315 237 339 228T382 218Q412 218 430 237T464 281L502 256Z"  />
<glyph unicode="&#xA0;" horiz-adv-x="250" />
<glyph unicode="&#xA1;" horiz-adv-x="333" d="M165 387Q139 387 124 405T109 444Q109 467 126 484T165 502Q190 502 207 485T224 444Q224 418 205 403T165 387ZM174 317L212 -41Q215 -70 219 -99T223 -158Q223 -167 219 -178T208 -199T191 -215T169 -222Q151 -222 140 -215T122 -198T113 -177T110 -158Q110 -129 114 -100T121 -41L159 317H174Z"  />
<glyph unicode="&#xA2;" horiz-adv-x="500" d="M286 422Q282 424 273 424Q236 424 211 406T171 359T150 297T143 233Q143 183 161 136T219 63L286 422ZM254 47Q270 41 293 41Q340 41 374 68T428 136L443 131Q416 67 374 28T258 -11Q248 -11 243 -10L218 -143H180L206 -4Q169 6 141 28T95 81T67 149T57 225Q57 269 74 308T120 378T188 425T272 443Q277 443 281 443T290 442L312 558H350L327 435Q346 430 365 422T400 401T425 374T435 340Q435 322 427 311T398 299Q377 299 369 312T356 343T345 380T322 411L254 47Z"  />
<glyph unicode="&#xA3;" horiz-adv-x="500" d="M206 77Q189 99 167 119T114 139Q91 139 75 122T58 81Q58 52 76 35T124 18Q151 18 175 34T206 77ZM373 300Q347 300 323 302T272 305Q279 285 283 267T287 229Q287 217 285 203T280 174T273 145T265 120Q280 111 297 104T334 96Q356 96 376 106T411 133T437 171T453 212L475 205Q473 172 466 135T441 66T397 13T327 -8Q292 -8 269 10T225 52Q213 37 202 26T179 7T153 -4T118 -8Q98 -8 81 -1T50 19T29 49T21 86Q21 105 28 123T47 154T75 176T112 184Q134 184 149 181T177 173T204 160T237 141Q238 168 233 189T218 229T194 265T161 301Q132 303 102 301T43 298L55 351Q74 349 92 347T131 346Q103 382 83 418T63 501Q63 539 77 571T115 626T172 662T243 675Q267 675 297 668T355 646T400 609T419 558Q419 538 407 525T375 511Q355 511 345 520T329 549Q324 567 318 586T301 620T276 644T236 654Q213 654 197 645T170 621T154 587T148 548Q148 519 158 493T185 442T219 394T253 349Q288 344 323 349T393 355L373 300Z"  />
<glyph unicode="&#xA4;" horiz-adv-x="500" d="M88 175Q65 203 52 238T39 310Q39 346 52 382T88 446L38 495L65 522L114 473Q174 522 251 522Q287 522 323 510T387 473L436 522L463 495L414 446Q462 386 462 309Q462 232 414 175L463 125L436 99L387 148Q326 98 248 98Q211 98 177 111T114 148L65 99L38 125L88 175ZM251 473Q218 473 188 460T136 425T101 374T88 311Q88 278 101 248T136 196T187 160T250 147Q283 147 313 159T365 194T400 245T413 309Q413 343 401 373T366 425T315 460T251 473Z"  />
<glyph unicode="&#xA5;" horiz-adv-x="500" d="M436 394L432 358H316L297 324V267H436L432 231H297V77Q297 58 302 47T317 30T340 23T367 21V0H139V21Q152 21 164 22T185 30T200 47T206 77V231H63L67 267H206V310L180 360H63L67 396H161L63 587Q56 599 48 613T31 640T9 661T-19 669V690H208V669Q200 669 189 669T167 665T150 654T143 633Q143 628 152 609T174 566T197 521T212 493L287 352Q293 365 306 387T335 437T367 493T398 548T420 596T429 631Q429 643 423 650T408 661T389 666T371 669V690H519V669Q498 664 487 653T465 623L336 394H436Z"  />
<glyph unicode="&#xA6;" horiz-adv-x="278" d="M166 675V325H112V675H166ZM166 175V-175H112V175H166Z"  />
<glyph unicode="&#xA7;" horiz-adv-x="500" d="M193 406Q162 406 143 387T123 336Q123 321 129 307T146 278T168 252T191 231Q199 223 212 212T241 192T271 176T299 169Q333 169 354 189T375 243Q375 257 368 271T349 299T326 324T303 345Q292 354 280 365T253 385T223 400T193 406ZM295 146Q313 130 330 115T359 82T379 43T387 -4Q387 -24 380 -45T355 -84T310 -113T242 -125Q179 -125 142 -98T105 -27Q105 -6 119 11T156 29Q177 29 192 17T207 -18Q207 -27 202 -35T190 -49T178 -61T173 -69Q174 -79 183 -86T203 -97T227 -102T247 -104Q263 -104 278 -99T305 -85T324 -63T331 -32Q331 -12 323 5T300 38T268 69T229 99Q202 119 174 140T124 186T87 240T73 306Q73 368 110 400T206 427L208 429Q190 444 173 459T142 492T120 531T111 578Q111 608 123 630T154 668T200 691T253 699Q275 699 297 693T338 673T367 642T378 598Q378 575 362 561T324 547Q306 547 294 561T281 592Q281 603 286 611T297 626T309 637T314 647Q314 656 307 662T289 671T268 676T251 678Q236 678 221 674T194 660T175 638T167 608Q167 589 174 574T192 546T217 522T244 500L338 422Q374 392 400 354T427 266Q427 238 417 215T389 176T348 153T297 148L295 146Z"  />
<glyph unicode="&#xA8;" horiz-adv-x="278" d="M40 508Q20 508 5 523T-10 558Q-10 577 5 592T40 608Q60 608 75 593T90 558Q90 538 75 523T40 508ZM239 508Q219 508 204 523T189 558Q189 577 204 592T239 608Q259 608 274 593T289 558Q289 538 274 523T239 508Z"  />
<glyph unicode="&#xA9;" horiz-adv-x="760" d="M380 -14Q306 -14 242 14T129 90T54 203T26 342Q26 416 53 481T129 594T241 671T380 699Q454 699 518 671T631 595T706 481T734 342Q734 268 707 203T631 90T519 14T380 -14ZM380 29Q441 29 495 54T589 123T653 223T676 342Q676 405 653 461T590 561T496 630T380 656Q318 656 265 631T171 562T107 461T84 342Q84 280 107 223T171 123T265 55T380 29ZM548 400H532Q524 460 489 496T389 532Q345 532 317 516T273 473T251 411T245 337Q245 302 252 270T275 211T319 170T385 154Q447 154 484 187T533 277H550V142H537L520 170Q489 150 455 138T383 126Q283 126 226 183T169 340Q169 388 185 428T230 498T300 543T389 560Q426 560 457 548T519 516L538 542H548V400Z"  />
<glyph unicode="&#xAA;" horiz-adv-x="300" d="M186 574Q175 569 157 563T123 549T94 530T82 506Q82 487 95 475T129 462Q147 462 159 468T186 484V574ZM186 651Q186 668 175 674T145 681Q137 681 127 679T109 673T95 664T89 654Q89 651 89 648T90 640Q90 623 84 612T58 601Q49 601 44 607T38 622Q38 632 44 641T62 658Q83 675 114 687T174 699Q203 699 218 684T234 642V483Q234 475 236 466T249 456Q257 456 261 462T267 475H277Q275 454 264 443T230 432Q213 432 200 444T186 471Q175 463 165 456T145 444T123 436T96 432Q74 432 57 446T39 480Q39 504 54 521T93 550T141 570T186 587V651Z"  />
<glyph unicode="&#xAB;" horiz-adv-x="500" d="M161 222Q168 216 185 196T219 152T249 107T263 80Q263 71 256 71Q250 71 243 77T232 88Q200 125 162 157T85 222Q121 254 158 285T230 352Q239 360 245 367T256 375Q264 375 264 368Q264 356 251 336T221 293T187 251T161 222ZM318 222Q325 216 342 196T376 152T406 107T420 80Q420 71 413 71Q407 71 400 77T389 88Q357 125 319 157T242 222Q278 254 315 285T387 352Q396 360 402 367T413 375Q421 375 421 368Q421 356 408 336T378 293T344 251T318 222Z"  />
<glyph unicode="&#xAC;" horiz-adv-x="560" d="M502 46H448V261H58V315H502V46Z"  />
<glyph unicode="&#xAD;" horiz-adv-x="333" d="M43 189V256H291V189H43Z"  />
<glyph unicode="&#xAE;" horiz-adv-x="760" d="M380 -14Q306 -14 242 14T129 90T54 203T26 342Q26 416 53 481T129 594T241 671T380 699Q454 699 518 671T631 595T706 481T734 342Q734 268 707 203T631 90T519 14T380 -14ZM380 29Q441 29 495 54T589 123T653 223T676 342Q676 405 653 461T590 561T496 630T380 656Q318 656 265 631T171 562T107 461T84 342Q84 280 107 223T171 123T265 55T380 29ZM227 548Q265 548 302 549T378 550Q403 550 428 545T473 528T505 497T518 448Q518 405 494 383T432 348Q458 320 483 284T526 213Q534 197 546 192T577 187V171H487Q478 186 466 204T441 242T414 280T388 311Q375 325 358 328T322 333V218Q322 197 333 192T369 187V171H225V187Q248 187 257 192T266 218V502Q266 522 256 526T227 531V548ZM322 354Q335 354 347 354T372 356Q414 359 436 383T458 449Q458 485 433 508T364 531Q343 531 333 525T322 499V354Z"  />
<glyph unicode="&#xAF;" horiz-adv-x="278" d="M289 586V532H-8V586H289Z"  />
<glyph unicode="&#xB0;" horiz-adv-x="400" d="M313 562Q313 539 304 519T280 483T244 459T200 450Q177 450 157 459T121 483T97 518T88 562Q88 585 96 605T120 641T156 666T200 675Q223 675 243 666T279 642T304 606T313 562ZM283 562Q283 596 259 620T199 645Q182 645 167 639T141 621T124 594T118 562Q118 528 141 504T200 480Q234 480 258 504T283 562Z"  />
<glyph unicode="&#xB1;" horiz-adv-x="560" d="M254 294V443H308V294H502V240H308V90H254V240H58V294H254ZM58 0V54H502V0H58Z"  />
<glyph unicode="&#xB2;" horiz-adv-x="300" d="M204 316Q219 316 229 318T248 324T262 337T275 358L288 355L243 234H233Q231 254 225 259T198 265H21Q21 286 28 306T46 343T69 376T93 405L148 471Q156 481 167 493T188 519T205 547T212 576Q212 604 198 622T147 640Q128 640 114 631T87 609T65 581T43 552H27Q38 572 53 593T87 633T129 663T180 675Q200 675 218 669T251 652T274 625T283 590Q283 570 275 555T252 522T214 485T163 437Q154 428 138 413T107 381T78 346T62 316H204Z"  />
<glyph unicode="&#xB3;" horiz-adv-x="300" d="M44 601Q55 613 69 626T99 650T132 668T169 675Q210 675 229 655T249 613Q249 598 240 584T219 556T195 530T174 509Q196 506 216 497T253 474T278 442T287 401Q287 372 274 347T240 304T190 276T132 265Q97 265 75 273T40 291T23 310T18 322Q18 331 24 340T41 350Q56 350 64 340T79 316T98 293T133 282Q147 282 163 288T192 308T215 339T224 381Q224 405 214 421T187 447T148 461T104 464Q116 477 130 490T158 519T181 550T190 585Q190 610 180 621T140 632Q113 632 93 621T52 594L44 601Z"  />
<glyph unicode="&#xB4;" horiz-adv-x="278" d="M64 493L211 641Q218 649 229 656T252 664Q287 664 287 627Q287 616 277 606T258 590L103 493H64Z"  />
<glyph unicode="&#xB5;" horiz-adv-x="556" d="M378 -11V59Q349 27 309 8T225 -11Q207 -11 186 -8Q186 -42 190 -76T194 -143Q194 -170 184 -192T147 -215Q118 -215 108 -196T97 -151V387Q97 402 85 407T38 413V432H176V87Q176 68 183 56T203 36T232 26T266 23Q323 23 350 58T379 146V387Q379 402 368 407T321 413V432H458V91Q458 74 463 66T477 53T495 48T511 47V34L378 -11Z"  />
<glyph unicode="&#xB6;" horiz-adv-x="620" d="M315 613Q315 635 311 647T298 665T276 672T245 673Q207 673 180 661T134 628T108 581T99 527Q99 436 155 396T315 355V613ZM582 690V669Q539 669 514 660T489 613V-73Q489 -92 495 -103T513 -120T541 -127T577 -129V-150H243V-129Q264 -129 277 -128T299 -120T311 -103T315 -73V334H245Q203 334 158 343T76 375T14 434T-10 526Q-10 565 9 595T61 648T135 681T222 693Q267 693 308 692T379 690H582ZM376 669V-129H428V669H376Z"  />
<glyph unicode="&#xB7;" horiz-adv-x="250" d="M61 222Q61 248 81 267T126 286Q152 286 170 267T189 222Q189 197 171 178T126 158Q100 158 81 177T61 222Z"  />
<glyph unicode="&#xB8;" horiz-adv-x="278" d="M75 -99L117 0H152L126 -65Q139 -62 155 -62Q188 -62 213 -78T238 -131Q238 -157 226 -173T194 -199T153 -211T110 -215Q70 -215 30 -199L44 -168Q58 -172 74 -176T105 -180Q129 -180 146 -171T163 -134Q163 -117 151 -108T122 -99Q104 -99 82 -104L75 -99Z"  />
<glyph unicode="&#xB9;" horiz-adv-x="300" d="M66 265V282Q101 284 113 288T126 311V545Q126 557 125 567T121 582Q116 590 103 591T61 595V613Q86 617 104 625T135 643T156 661T171 675H190V311Q190 302 192 297T200 288T217 284T247 282V265H66Z"  />
<glyph unicode="&#xBA;" horiz-adv-x="300" d="M14 566Q14 593 24 617T51 659T93 688T148 699Q179 699 204 689T248 660T276 617T286 564Q286 506 250 469T149 432Q117 432 92 442T49 471T23 513T14 566ZM232 550Q232 569 230 592T219 637T194 672T150 687Q126 687 111 674T86 642T72 602T68 564Q68 547 72 526T85 487T110 457T149 444Q172 444 188 454T213 479T227 513T232 550Z"  />
<glyph unicode="&#xBB;" horiz-adv-x="500" d="M339 222Q330 231 313 250T279 292T249 335T236 368Q236 375 244 375Q249 375 255 368T270 352Q305 317 342 286T415 222Q377 190 339 158T268 88Q264 84 257 78T244 71Q237 71 237 80Q237 86 250 107T281 151T315 195T339 222ZM182 222Q173 231 156 250T122 292T92 335T79 368Q79 375 87 375Q92 375 98 368T113 352Q148 317 185 286T258 222Q220 190 182 158T111 88Q107 84 100 78T87 71Q80 71 80 80Q80 86 93 107T124 151T158 195T182 222Z"  />
<glyph unicode="&#xBC;" horiz-adv-x="750" d="M603 156V333H601L465 156H603ZM424 144L628 410H667V156H731V115H667V0H603V115H424V144ZM580 675H630L182 0H130L580 675ZM156 675V311Q156 302 158 297T166 288T183 284T213 282V265H32V282Q67 284 79 288T92 311V545Q92 557 91 567T87 582Q82 590 69 591T27 595V613Q52 617 70 625T101 643T122 661T137 675H156Z"  />
<glyph unicode="&#xBD;" horiz-adv-x="750" d="M581 675H631L183 0H131L581 675ZM162 675V311Q162 302 164 297T172 288T189 284T219 282V265H38V282Q73 284 85 288T98 311V545Q98 557 97 567T93 582Q88 590 75 591T33 595V613Q58 617 76 625T107 643T128 661T143 675H162ZM630 51Q645 51 655 53T674 59T688 72T701 93L714 90L669 -31H659Q657 -11 651 -6T624 0H447Q447 21 454 41T472 78T495 111T519 140L574 206Q582 216 593 228T614 254T631 282T638 311Q638 339 624 357T573 375Q554 375 540 366T513 344T491 316T469 287H453Q464 307 479 328T513 368T555 398T606 410Q626 410 644 404T677 387T700 360T709 325Q709 305 701 290T678 257T640 220T589 172Q580 163 564 148T533 116T504 81T488 51H630Z"  />
<glyph unicode="&#xBE;" horiz-adv-x="750" d="M623 156V333H621L485 156H623ZM600 675H650L202 0H150L600 675ZM444 144L648 410H687V156H751V115H687V0H623V115H444V144ZM33 601Q44 613 58 626T88 650T121 668T158 675Q199 675 218 655T238 613Q238 598 229 584T208 556T184 530T163 509Q185 506 205 497T242 474T267 442T276 401Q276 372 263 347T229 304T179 276T121 265Q86 265 64 273T29 291T12 310T7 322Q7 331 13 340T30 350Q45 350 53 340T68 316T87 293T122 282Q136 282 152 288T181 308T204 339T213 381Q213 405 203 421T176 447T137 461T93 464Q105 477 119 490T147 519T170 550T179 585Q179 610 169 621T129 632Q102 632 82 621T41 594L33 601Z"  />
<glyph unicode="&#xBF;" horiz-adv-x="389" d="M242 304H266L271 73Q243 73 211 72T151 61T105 31T86 -27Q86 -59 103 -81T149 -114Q167 -121 191 -123T236 -130T272 -142T287 -171Q287 -192 274 -203T240 -215Q201 -215 168 -198T111 -152T73 -88T59 -16Q59 28 71 57T107 105T163 132T236 144L242 304ZM251 387Q225 387 210 405T195 444Q195 467 212 484T251 502Q276 502 293 485T310 444Q310 418 291 403T251 387Z"  />
<glyph unicode="&#xC0;" horiz-adv-x="667" d="M11 0V21Q33 23 50 36T75 69L279 601L261 631Q286 645 305 666T342 709L576 113Q584 92 591 76T608 49T630 31T664 21V0H403V21Q414 21 428 21T456 26T478 38T487 61Q487 72 478 98T458 156T435 216T418 262H179Q175 248 164 220T141 160T120 101T111 64Q111 49 119 41T141 29T167 24T192 21V0H11ZM190 289H407L294 572L190 289ZM371 751L216 848Q208 853 198 863T187 885Q187 922 222 922Q233 922 244 915T263 899L410 751H371Z"  />
<glyph unicode="&#xC1;" horiz-adv-x="667" d="M11 0V21Q33 23 50 36T75 69L279 601L261 631Q286 645 305 666T342 709L576 113Q584 92 591 76T608 49T630 31T664 21V0H403V21Q414 21 428 21T456 26T478 38T487 61Q487 72 478 98T458 156T435 216T418 262H179Q175 248 164 220T141 160T120 101T111 64Q111 49 119 41T141 29T167 24T192 21V0H11ZM190 289H407L294 572L190 289ZM247 751L394 899Q401 907 412 914T435 922Q470 922 470 885Q470 874 460 864T441 848L286 751H247Z"  />
<glyph unicode="&#xC2;" horiz-adv-x="667" d="M11 0V21Q33 23 50 36T75 69L279 601L261 631Q286 645 305 666T342 709L576 113Q584 92 591 76T608 49T630 31T664 21V0H403V21Q414 21 428 21T456 26T478 38T487 61Q487 72 478 98T458 156T435 216T418 262H179Q175 248 164 220T141 160T120 101T111 64Q111 49 119 41T141 29T167 24T192 21V0H11ZM190 289H407L294 572L190 289ZM194 750H160L284 917H346L471 750H437L315 853L194 750Z"  />
<glyph unicode="&#xC3;" horiz-adv-x="667" d="M11 0V21Q33 23 50 36T75 69L279 601L261 631Q286 645 305 666T342 709L576 113Q584 92 591 76T608 49T630 31T664 21V0H403V21Q414 21 428 21T456 26T478 38T487 61Q487 72 478 98T458 156T435 216T418 262H179Q175 248 164 220T141 160T120 101T111 64Q111 49 119 41T141 29T167 24T192 21V0H11ZM190 289H407L294 572L190 289ZM489 881Q485 860 477 841T455 808T424 784T383 775Q361 775 342 782T305 798Q288 807 273 814T243 821Q223 821 208 808T188 775H159Q168 819 193 847T267 876Q287 876 304 869T338 854Q355 845 372 838T406 831Q427 831 440 847T460 881H489Z"  />
<glyph unicode="&#xC4;" horiz-adv-x="667" d="M11 0V21Q33 23 50 36T75 69L279 601L261 631Q286 645 305 666T342 709L576 113Q584 92 591 76T608 49T630 31T664 21V0H403V21Q414 21 428 21T456 26T478 38T487 61Q487 72 478 98T458 156T435 216T418 262H179Q175 248 164 220T141 160T120 101T111 64Q111 49 119 41T141 29T167 24T192 21V0H11ZM190 289H407L294 572L190 289ZM235 766Q215 766 200 781T185 816Q185 835 200 850T235 866Q255 866 270 851T285 816Q285 796 270 781T235 766ZM434 766Q414 766 399 781T384 816Q384 835 399 850T434 866Q454 866 469 851T484 816Q484 796 469 781T434 766Z"  />
<glyph unicode="&#xC5;" horiz-adv-x="667" d="M11 0V21Q33 23 50 36T75 69L279 601L261 631Q286 645 305 666T342 709L576 113Q584 92 591 76T608 49T630 31T664 21V0H403V21Q414 21 428 21T456 26T478 38T487 61Q487 72 478 98T458 156T435 216T418 262H179Q175 248 164 220T141 160T120 101T111 64Q111 49 119 41T141 29T167 24T192 21V0H11ZM190 289H407L294 572L190 289ZM335 750Q315 750 297 758T265 779T243 811T235 849Q235 869 243 887T264 919T296 941T335 949Q355 949 373 941T404 920T426 888T434 849Q434 829 426 811T405 780T373 758T335 750ZM335 783Q361 783 381 803T401 849Q401 875 381 895T335 916Q308 916 288 896T268 849Q268 823 288 803T335 783Z"  />
<glyph unicode="&#xC6;" horiz-adv-x="944" d="M459 329V655H452L264 329H459ZM560 77Q560 65 561 55T566 38T580 27T607 22L669 21Q727 20 758 31T810 66Q830 86 847 116T891 191L907 182L874 0H383V21Q398 21 411 22T435 30T452 47T459 77V302H248Q244 293 232 273T206 228T175 176T146 125T125 83T116 58Q116 45 124 38T144 28T168 24T190 21V0H7V21Q15 21 22 23T38 28Q49 32 63 50T92 90T118 133T136 164L368 557Q371 563 376 571T385 588T393 607T397 623Q397 639 390 648T372 661T348 666T322 669V690H846L895 536L876 527Q870 536 860 549T839 575T816 601T797 620Q764 650 736 659T667 669H560V362H613Q640 362 659 368T692 389T716 428T734 487H752V199H736Q729 239 720 265T697 306T663 328T613 335H560V77Z"  />
<glyph unicode="&#xC7;" horiz-adv-x="722" d="M660 12H639L611 59Q560 25 505 6T387 -14H381L360 -65Q373 -62 389 -62Q422 -62 447 -78T472 -131Q472 -157 460 -173T428 -199T387 -211T344 -215Q304 -215 264 -199L278 -168Q292 -172 308 -176T339 -180Q363 -180 380 -171T397 -134Q397 -117 385 -108T356 -99Q338 -99 316 -104L309 -99L346 -12Q274 -6 217 20T119 92T58 199T36 338Q36 416 62 482T137 597T251 672T396 699Q457 699 507 679T609 626L641 669H657V436H639Q633 485 614 529T564 606T491 658T396 678Q361 678 330 667T271 635T222 588T185 531Q164 487 156 434T148 332Q148 299 151 271T162 217T182 166T211 112Q237 68 284 38T390 7Q442 7 484 25T559 74T611 146T641 235H660V12Z"  />
<glyph unicode="&#xC8;" horiz-adv-x="722" d="M65 0V21Q101 21 122 30T143 77V613Q143 632 137 643T119 660T94 667T62 669V690H572L621 529L600 524Q579 557 555 587Q517 636 478 652T396 669H244V362H299Q337 362 364 366T410 383T441 421T463 488H479V200H463Q459 242 449 268T420 309T375 329T312 335H244V70Q244 53 249 44T264 29T286 23T313 21H425Q443 21 458 23T486 30T513 45T541 69Q567 95 589 123T632 184L649 179L609 0H65ZM398 751L243 848Q235 853 225 863T214 885Q214 922 249 922Q260 922 271 915T290 899L437 751H398Z"  />
<glyph unicode="&#xC9;" horiz-adv-x="722" d="M65 0V21Q101 21 122 30T143 77V613Q143 632 137 643T119 660T94 667T62 669V690H572L621 529L600 524Q579 557 555 587Q517 636 478 652T396 669H244V362H299Q337 362 364 366T410 383T441 421T463 488H479V200H463Q459 242 449 268T420 309T375 329T312 335H244V70Q244 53 249 44T264 29T286 23T313 21H425Q443 21 458 23T486 30T513 45T541 69Q567 95 589 123T632 184L649 179L609 0H65ZM266 751L413 899Q420 907 431 914T454 922Q489 922 489 885Q489 874 479 864T460 848L305 751H266Z"  />
<glyph unicode="&#xCA;" horiz-adv-x="722" d="M65 0V21Q101 21 122 30T143 77V613Q143 632 137 643T119 660T94 667T62 669V690H572L621 529L600 524Q579 557 555 587Q517 636 478 652T396 669H244V362H299Q337 362 364 366T410 383T441 421T463 488H479V200H463Q459 242 449 268T420 309T375 329T312 335H244V70Q244 53 249 44T264 29T286 23T313 21H425Q443 21 458 23T486 30T513 45T541 69Q567 95 589 123T632 184L649 179L609 0H65ZM221 750H187L311 917H373L498 750H464L342 853L221 750Z"  />
<glyph unicode="&#xCB;" horiz-adv-x="722" d="M65 0V21Q101 21 122 30T143 77V613Q143 632 137 643T119 660T94 667T62 669V690H572L621 529L600 524Q579 557 555 587Q517 636 478 652T396 669H244V362H299Q337 362 364 366T410 383T441 421T463 488H479V200H463Q459 242 449 268T420 309T375 329T312 335H244V70Q244 53 249 44T264 29T286 23T313 21H425Q443 21 458 23T486 30T513 45T541 69Q567 95 589 123T632 184L649 179L609 0H65ZM262 766Q242 766 227 781T212 816Q212 835 227 850T262 866Q282 866 297 851T312 816Q312 796 297 781T262 766ZM461 766Q441 766 426 781T411 816Q411 835 426 850T461 866Q481 866 496 851T511 816Q511 796 496 781T461 766Z"  />
<glyph unicode="&#xCC;" horiz-adv-x="389" d="M52 0V21Q94 21 118 30T143 77V613Q143 651 119 660T52 669V690H337V669Q294 669 269 660T244 613V77Q244 39 269 30T337 21V0H52ZM232 751L77 848Q69 853 59 863T48 885Q48 922 83 922Q94 922 105 915T124 899L271 751H232Z"  />
<glyph unicode="&#xCD;" horiz-adv-x="389" d="M52 0V21Q94 21 118 30T143 77V613Q143 651 119 660T52 669V690H337V669Q294 669 269 660T244 613V77Q244 39 269 30T337 21V0H52ZM120 751L267 899Q274 907 285 914T308 922Q343 922 343 885Q343 874 333 864T314 848L159 751H120Z"  />
<glyph unicode="&#xCE;" horiz-adv-x="389" d="M52 0V21Q94 21 118 30T143 77V613Q143 651 119 660T52 669V690H337V669Q294 669 269 660T244 613V77Q244 39 269 30T337 21V0H52ZM75 750H41L165 917H227L352 750H318L196 853L75 750Z"  />
<glyph unicode="&#xCF;" horiz-adv-x="389" d="M52 0V21Q94 21 118 30T143 77V613Q143 651 119 660T52 669V690H337V669Q294 669 269 660T244 613V77Q244 39 269 30T337 21V0H52ZM96 766Q76 766 61 781T46 816Q46 835 61 850T96 866Q116 866 131 851T146 816Q146 796 131 781T96 766ZM295 766Q275 766 260 781T245 816Q245 835 260 850T295 866Q315 866 330 851T345 816Q345 796 330 781T295 766Z"  />
<glyph unicode="&#xD0;" horiz-adv-x="833" d="M234 370V95Q234 66 242 50T267 27T307 17T360 15Q432 14 489 36T587 100T649 200T671 330Q671 494 590 584T341 675Q313 675 293 673T259 662T240 640T234 600V417H493V370H234ZM60 370V417H133V595Q133 615 131 629T121 652T99 665T59 669V690Q137 691 215 693T372 696Q489 696 568 667T694 589T762 476T783 340Q783 166 675 80T351 -6Q278 -6 206 -3T61 0V21Q85 21 99 25T120 38T130 61T133 95V370H60Z"  />
<glyph unicode="&#xD1;" horiz-adv-x="833" d="M146 582V77Q146 51 166 37T238 21V0H31V21Q49 23 64 24T91 31T109 47T118 77V78Q118 78 119 80V611Q99 633 79 650T32 669V690H181L676 147V605Q676 624 671 635T655 654T628 664T588 669V690H794V669Q742 661 723 646T703 606V-8H688L146 582ZM584 881Q580 860 572 841T550 808T519 784T478 775Q456 775 437 782T400 798Q383 807 368 814T338 821Q318 821 303 808T283 775H254Q263 819 288 847T362 876Q382 876 399 869T433 854Q450 845 467 838T501 831Q522 831 535 847T555 881H584Z"  />
<glyph unicode="&#xD2;" horiz-adv-x="778" d="M630 338Q630 431 605 495T544 600T467 659T392 678Q347 678 303 658T225 595T169 486T148 329Q148 264 163 206T208 103T281 33T380 7Q444 7 491 38T569 117T615 223T630 338ZM385 699Q448 699 510 678T623 612T705 499T737 337Q737 308 731 271T709 195T667 119T602 52T507 4T380 -14Q313 -14 262 3T173 48T110 113T70 188T48 264T41 333Q41 408 59 464T108 561T176 628T252 671T325 693T385 699ZM426 751L271 848Q263 853 253 863T242 885Q242 922 277 922Q288 922 299 915T318 899L465 751H426Z"  />
<glyph unicode="&#xD3;" horiz-adv-x="778" d="M630 338Q630 431 605 495T544 600T467 659T392 678Q347 678 303 658T225 595T169 486T148 329Q148 264 163 206T208 103T281 33T380 7Q444 7 491 38T569 117T615 223T630 338ZM385 699Q448 699 510 678T623 612T705 499T737 337Q737 308 731 271T709 195T667 119T602 52T507 4T380 -14Q313 -14 262 3T173 48T110 113T70 188T48 264T41 333Q41 408 59 464T108 561T176 628T252 671T325 693T385 699ZM294 751L441 899Q448 907 459 914T482 922Q517 922 517 885Q517 874 507 864T488 848L333 751H294Z"  />
<glyph unicode="&#xD4;" horiz-adv-x="778" d="M630 338Q630 431 605 495T544 600T467 659T392 678Q347 678 303 658T225 595T169 486T148 329Q148 264 163 206T208 103T281 33T380 7Q444 7 491 38T569 117T615 223T630 338ZM385 699Q448 699 510 678T623 612T705 499T737 337Q737 308 731 271T709 195T667 119T602 52T507 4T380 -14Q313 -14 262 3T173 48T110 113T70 188T48 264T41 333Q41 408 59 464T108 561T176 628T252 671T325 693T385 699ZM249 750H215L339 917H401L526 750H492L370 853L249 750Z"  />
<glyph unicode="&#xD5;" horiz-adv-x="778" d="M630 338Q630 431 605 495T544 600T467 659T392 678Q347 678 303 658T225 595T169 486T148 329Q148 264 163 206T208 103T281 33T380 7Q444 7 491 38T569 117T615 223T630 338ZM385 699Q448 699 510 678T623 612T705 499T737 337Q737 308 731 271T709 195T667 119T602 52T507 4T380 -14Q313 -14 262 3T173 48T110 113T70 188T48 264T41 333Q41 408 59 464T108 561T176 628T252 671T325 693T385 699ZM536 881Q532 860 524 841T502 808T471 784T430 775Q408 775 389 782T352 798Q335 807 320 814T290 821Q270 821 255 808T235 775H206Q215 819 240 847T314 876Q334 876 351 869T385 854Q402 845 419 838T453 831Q474 831 487 847T507 881H536Z"  />
<glyph unicode="&#xD6;" horiz-adv-x="778" d="M630 338Q630 431 605 495T544 600T467 659T392 678Q347 678 303 658T225 595T169 486T148 329Q148 264 163 206T208 103T281 33T380 7Q444 7 491 38T569 117T615 223T630 338ZM385 699Q448 699 510 678T623 612T705 499T737 337Q737 308 731 271T709 195T667 119T602 52T507 4T380 -14Q313 -14 262 3T173 48T110 113T70 188T48 264T41 333Q41 408 59 464T108 561T176 628T252 671T325 693T385 699ZM290 766Q270 766 255 781T240 816Q240 835 255 850T290 866Q310 866 325 851T340 816Q340 796 325 781T290 766ZM489 766Q469 766 454 781T439 816Q439 835 454 850T489 866Q509 866 524 851T539 816Q539 796 524 781T489 766Z"  />
<glyph unicode="&#xD7;" horiz-adv-x="560" d="M242 222L59 405L97 443L280 260L462 443L502 405L318 222L502 38L463 0L280 184L96 0L58 38L242 222Z"  />
<glyph unicode="&#xD8;" horiz-adv-x="778" d="M229 76Q258 43 295 25T380 7Q444 7 491 38T569 117T615 223T630 338Q630 421 611 481T561 581L229 76ZM648 764H682L596 634Q627 611 652 582T697 516T726 434T737 337Q737 308 731 271T709 195T667 119T602 52T507 4T380 -14Q323 -14 279 -2T200 32L120 -89H85L175 48Q137 76 111 112T70 188T48 264T41 333Q41 408 59 464T108 561T176 628T252 671T325 693T385 699Q433 699 480 687T571 648L648 764ZM542 604Q506 644 465 661T392 678Q347 678 303 658T225 595T169 486T148 329Q148 263 164 204T210 100L542 604Z"  />
<glyph unicode="&#xD9;" horiz-adv-x="778" d="M56 690H317V669Q289 669 272 665T245 652T232 627T229 592V191Q229 164 235 132T262 73T321 26T421 7Q483 7 523 25T585 74T616 145T625 229V592Q625 618 619 632T599 654T567 664T521 669V690H737V669Q697 669 675 652T652 592V229Q652 177 641 133T600 56T519 5T390 -14Q314 -14 264 5T183 55T141 129T128 218V592Q128 617 126 631T117 654T95 665T56 669V690ZM441 751L286 848Q278 853 268 863T257 885Q257 922 292 922Q303 922 314 915T333 899L480 751H441Z"  />
<glyph unicode="&#xDA;" horiz-adv-x="778" d="M56 690H317V669Q289 669 272 665T245 652T232 627T229 592V191Q229 164 235 132T262 73T321 26T421 7Q483 7 523 25T585 74T616 145T625 229V592Q625 618 619 632T599 654T567 664T521 669V690H737V669Q697 669 675 652T652 592V229Q652 177 641 133T600 56T519 5T390 -14Q314 -14 264 5T183 55T141 129T128 218V592Q128 617 126 631T117 654T95 665T56 669V690ZM326 751L473 899Q480 907 491 914T514 922Q549 922 549 885Q549 874 539 864T520 848L365 751H326Z"  />
<glyph unicode="&#xDB;" horiz-adv-x="778" d="M56 690H317V669Q289 669 272 665T245 652T232 627T229 592V191Q229 164 235 132T262 73T321 26T421 7Q483 7 523 25T585 74T616 145T625 229V592Q625 618 619 632T599 654T567 664T521 669V690H737V669Q697 669 675 652T652 592V229Q652 177 641 133T600 56T519 5T390 -14Q314 -14 264 5T183 55T141 129T128 218V592Q128 617 126 631T117 654T95 665T56 669V690ZM269 750H235L359 917H421L546 750H512L390 853L269 750Z"  />
<glyph unicode="&#xDC;" horiz-adv-x="778" d="M56 690H317V669Q289 669 272 665T245 652T232 627T229 592V191Q229 164 235 132T262 73T321 26T421 7Q483 7 523 25T585 74T616 145T625 229V592Q625 618 619 632T599 654T567 664T521 669V690H737V669Q697 669 675 652T652 592V229Q652 177 641 133T600 56T519 5T390 -14Q314 -14 264 5T183 55T141 129T128 218V592Q128 617 126 631T117 654T95 665T56 669V690ZM290 766Q270 766 255 781T240 816Q240 835 255 850T290 866Q310 866 325 851T340 816Q340 796 325 781T290 766ZM489 766Q469 766 454 781T439 816Q439 835 454 850T489 866Q509 866 524 851T539 816Q539 796 524 781T489 766Z"  />
<glyph unicode="&#xDD;" horiz-adv-x="611" d="M7 690H259V669Q250 669 237 669T213 665T194 654T186 633Q186 628 196 609T220 566T246 521T263 493L346 352Q353 365 367 387T399 437T435 493T469 548T494 596T504 631Q504 643 498 650T481 661T460 666T440 669V690H604V669Q581 664 569 653T544 623L357 324V77Q357 58 363 47T380 30T405 23T435 21V0H182V21Q196 21 209 22T233 30T250 47T256 77V310L97 587Q89 599 81 613T62 640T38 661T7 669V690ZM231 751L378 899Q385 907 396 914T419 922Q454 922 454 885Q454 874 444 864T425 848L270 751H231Z"  />
<glyph unicode="&#xDE;" horiz-adv-x="611" d="M194 77Q194 39 219 30T287 21V0H2V21Q44 21 68 30T93 77V613Q93 651 69 660T2 669V690H287V669Q244 669 219 660T194 613V595H316Q365 595 409 583T486 545T538 480T558 387Q558 330 535 293T473 235T388 204T293 195H194V77ZM194 216H236Q291 216 331 221T397 246T436 301T449 398Q449 437 440 469T412 524T364 561T293 574Q258 574 233 571T194 552V216Z"  />
<glyph unicode="&#xDF;" horiz-adv-x="556" d="M294 699Q329 699 361 690T417 661T456 614T471 547Q471 516 461 493T432 454T390 426T338 409V406Q422 383 469 333T516 192Q516 153 502 116T462 51T401 6T325 -11Q307 -11 287 -8T249 5T221 29T209 66Q209 79 219 89T243 100Q260 100 273 88T288 59Q290 35 299 22T335 8Q366 8 385 28T415 78T430 138T434 193Q434 241 425 279T395 343T338 383T252 399V418Q323 417 360 448T397 552Q397 579 392 602T373 643T339 670T288 680Q256 680 235 666T200 631T181 582T175 527V0H35V19Q48 20 60 21T81 28T95 43T101 74V509Q101 551 115 586T156 646T217 685T294 699Z"  />
<glyph unicode="&#xE0;" horiz-adv-x="444" d="M271 231Q254 223 227 213T174 189T129 157T110 116Q110 85 130 63T182 41Q211 41 230 52T271 80V231ZM271 362Q271 392 254 403T209 414Q195 414 180 410T152 400T130 385T121 366Q121 361 121 357T122 344Q122 315 113 297T71 279Q57 279 49 290T41 313Q41 330 51 345T77 374Q111 403 159 423T253 443Q299 443 323 417T347 346V78Q347 72 347 64T350 48T356 36T370 31Q382 31 389 43T398 65H414Q410 29 394 9T341 -11Q313 -11 293 10T272 58Q254 45 239 33T207 11T173 -5T131 -11Q114 -11 98 -5T70 13T50 40T42 74Q42 115 66 143T126 192T201 226T271 253V362ZM259 493L104 590Q96 595 86 605T75 627Q75 664 110 664Q121 664 132 657T151 641L298 493H259Z"  />
<glyph unicode="&#xE1;" horiz-adv-x="444" d="M271 231Q254 223 227 213T174 189T129 157T110 116Q110 85 130 63T182 41Q211 41 230 52T271 80V231ZM271 362Q271 392 254 403T209 414Q195 414 180 410T152 400T130 385T121 366Q121 361 121 357T122 344Q122 315 113 297T71 279Q57 279 49 290T41 313Q41 330 51 345T77 374Q111 403 159 423T253 443Q299 443 323 417T347 346V78Q347 72 347 64T350 48T356 36T370 31Q382 31 389 43T398 65H414Q410 29 394 9T341 -11Q313 -11 293 10T272 58Q254 45 239 33T207 11T173 -5T131 -11Q114 -11 98 -5T70 13T50 40T42 74Q42 115 66 143T126 192T201 226T271 253V362ZM127 493L274 641Q281 649 292 656T315 664Q350 664 350 627Q350 616 340 606T321 590L166 493H127Z"  />
<glyph unicode="&#xE2;" horiz-adv-x="444" d="M271 231Q254 223 227 213T174 189T129 157T110 116Q110 85 130 63T182 41Q211 41 230 52T271 80V231ZM271 362Q271 392 254 403T209 414Q195 414 180 410T152 400T130 385T121 366Q121 361 121 357T122 344Q122 315 113 297T71 279Q57 279 49 290T41 313Q41 330 51 345T77 374Q111 403 159 423T253 443Q299 443 323 417T347 346V78Q347 72 347 64T350 48T356 36T370 31Q382 31 389 43T398 65H414Q410 29 394 9T341 -11Q313 -11 293 10T272 58Q254 45 239 33T207 11T173 -5T131 -11Q114 -11 98 -5T70 13T50 40T42 74Q42 115 66 143T126 192T201 226T271 253V362ZM102 492H68L192 659H254L379 492H345L223 595L102 492Z"  />
<glyph unicode="&#xE3;" horiz-adv-x="444" d="M271 231Q254 223 227 213T174 189T129 157T110 116Q110 85 130 63T182 41Q211 41 230 52T271 80V231ZM271 362Q271 392 254 403T209 414Q195 414 180 410T152 400T130 385T121 366Q121 361 121 357T122 344Q122 315 113 297T71 279Q57 279 49 290T41 313Q41 330 51 345T77 374Q111 403 159 423T253 443Q299 443 323 417T347 346V78Q347 72 347 64T350 48T356 36T370 31Q382 31 389 43T398 65H414Q410 29 394 9T341 -11Q313 -11 293 10T272 58Q254 45 239 33T207 11T173 -5T131 -11Q114 -11 98 -5T70 13T50 40T42 74Q42 115 66 143T126 192T201 226T271 253V362ZM369 623Q365 602 357 583T335 550T304 526T263 517Q241 517 222 524T185 540Q168 549 153 556T123 563Q103 563 88 550T68 517H39Q48 561 73 589T147 618Q167 618 184 611T218 596Q235 587 252 580T286 573Q307 573 320 589T340 623H369Z"  />
<glyph unicode="&#xE4;" horiz-adv-x="444" d="M271 231Q254 223 227 213T174 189T129 157T110 116Q110 85 130 63T182 41Q211 41 230 52T271 80V231ZM271 362Q271 392 254 403T209 414Q195 414 180 410T152 400T130 385T121 366Q121 361 121 357T122 344Q122 315 113 297T71 279Q57 279 49 290T41 313Q41 330 51 345T77 374Q111 403 159 423T253 443Q299 443 323 417T347 346V78Q347 72 347 64T350 48T356 36T370 31Q382 31 389 43T398 65H414Q410 29 394 9T341 -11Q313 -11 293 10T272 58Q254 45 239 33T207 11T173 -5T131 -11Q114 -11 98 -5T70 13T50 40T42 74Q42 115 66 143T126 192T201 226T271 253V362ZM123 508Q103 508 88 523T73 558Q73 577 88 592T123 608Q143 608 158 593T173 558Q173 538 158 523T123 508ZM322 508Q302 508 287 523T272 558Q272 577 287 592T322 608Q342 608 357 593T372 558Q372 538 357 523T322 508Z"  />
<glyph unicode="&#xE5;" horiz-adv-x="444" d="M271 231Q254 223 227 213T174 189T129 157T110 116Q110 85 130 63T182 41Q211 41 230 52T271 80V231ZM271 362Q271 392 254 403T209 414Q195 414 180 410T152 400T130 385T121 366Q121 361 121 357T122 344Q122 315 113 297T71 279Q57 279 49 290T41 313Q41 330 51 345T77 374Q111 403 159 423T253 443Q299 443 323 417T347 346V78Q347 72 347 64T350 48T356 36T370 31Q382 31 389 43T398 65H414Q410 29 394 9T341 -11Q313 -11 293 10T272 58Q254 45 239 33T207 11T173 -5T131 -11Q114 -11 98 -5T70 13T50 40T42 74Q42 115 66 143T126 192T201 226T271 253V362ZM223 492Q203 492 185 500T153 521T131 553T123 591Q123 611 131 629T152 661T184 683T223 691Q243 691 261 683T292 662T314 630T322 591Q322 571 314 553T293 522T261 500T223 492ZM223 525Q249 525 269 545T289 591Q289 617 269 637T223 658Q196 658 176 638T156 591Q156 565 176 545T223 525Z"  />
<glyph unicode="&#xE6;" horiz-adv-x="722" d="M560 315Q556 361 535 391T465 422Q442 422 423 414T390 391T365 357T352 315H560ZM267 358Q267 387 255 400T213 413Q191 413 166 405T124 380Q122 378 121 372T119 359T118 345T118 335Q116 309 107 294T69 279Q57 279 48 288T38 310Q38 326 47 341T71 370Q105 402 151 422T245 443Q279 443 301 433T337 389Q355 404 371 414T405 430T442 440T485 443Q518 443 550 432T609 402T654 354T679 292H348Q347 280 347 268T346 244Q346 208 355 174T384 115T433 74T503 58Q560 58 602 83T667 160L686 153Q658 76 605 33T467 -11Q418 -11 373 13T300 79Q283 65 263 50T221 21T176 -2T129 -11Q91 -11 64 14T36 78Q36 116 61 144T123 193T198 228T267 252V358ZM267 231Q249 225 222 215T168 189T124 156T105 114Q105 100 110 87T125 64T146 48T173 41Q215 41 267 84V231Z"  />
<glyph unicode="&#xE7;" horiz-adv-x="444" d="M415 131Q401 99 385 73T346 28T296 -1T231 -11L209 -65Q222 -62 238 -62Q271 -62 296 -78T321 -131Q321 -157 309 -173T277 -199T236 -211T193 -215Q153 -215 113 -199L127 -168Q141 -172 157 -176T188 -180Q212 -180 229 -171T246 -134Q246 -117 234 -108T205 -99Q187 -99 165 -104L158 -99L197 -7Q155 -1 124 20T72 73T41 144T30 225Q30 269 47 308T93 378T161 425T244 443Q265 443 293 437T346 418T389 386T407 340Q407 322 399 311T370 299Q353 299 345 308T332 331T324 361T312 391T288 414T245 424Q208 424 183 406T143 359T122 297T115 233Q115 198 124 164T151 103T197 58T265 41Q312 41 346 68T400 136L415 131Z"  />
<glyph unicode="&#xE8;" horiz-adv-x="500" d="M121 293Q119 279 118 265T116 236Q116 197 128 164T164 106T220 69T293 55Q342 55 383 82T444 154L461 149Q437 78 386 34T257 -11Q206 -11 166 5T98 52T55 123T40 216Q40 261 56 302T100 374T168 424T254 443Q328 443 383 406T456 293H121ZM335 316Q333 337 328 356T313 390T285 413T244 422Q220 422 202 413T169 390T145 356T128 316H335ZM307 493L152 590Q144 595 134 605T123 627Q123 664 158 664Q169 664 180 657T199 641L346 493H307Z"  />
<glyph unicode="&#xE9;" horiz-adv-x="500" d="M121 293Q119 279 118 265T116 236Q116 197 128 164T164 106T220 69T293 55Q342 55 383 82T444 154L461 149Q437 78 386 34T257 -11Q206 -11 166 5T98 52T55 123T40 216Q40 261 56 302T100 374T168 424T254 443Q328 443 383 406T456 293H121ZM335 316Q333 337 328 356T313 390T285 413T244 422Q220 422 202 413T169 390T145 356T128 316H335ZM175 493L322 641Q329 649 340 656T363 664Q398 664 398 627Q398 616 388 606T369 590L214 493H175Z"  />
<glyph unicode="&#xEA;" horiz-adv-x="500" d="M121 293Q119 279 118 265T116 236Q116 197 128 164T164 106T220 69T293 55Q342 55 383 82T444 154L461 149Q437 78 386 34T257 -11Q206 -11 166 5T98 52T55 123T40 216Q40 261 56 302T100 374T168 424T254 443Q328 443 383 406T456 293H121ZM335 316Q333 337 328 356T313 390T285 413T244 422Q220 422 202 413T169 390T145 356T128 316H335ZM130 492H96L220 659H282L407 492H373L251 595L130 492Z"  />
<glyph unicode="&#xEB;" horiz-adv-x="500" d="M121 293Q119 279 118 265T116 236Q116 197 128 164T164 106T220 69T293 55Q342 55 383 82T444 154L461 149Q437 78 386 34T257 -11Q206 -11 166 5T98 52T55 123T40 216Q40 261 56 302T100 374T168 424T254 443Q328 443 383 406T456 293H121ZM335 316Q333 337 328 356T313 390T285 413T244 422Q220 422 202 413T169 390T145 356T128 316H335ZM151 508Q131 508 116 523T101 558Q101 577 116 592T151 608Q171 608 186 593T201 558Q201 538 186 523T151 508ZM350 508Q330 508 315 523T300 558Q300 577 315 592T350 608Q370 608 385 593T400 558Q400 538 385 523T350 508Z"  />
<glyph unicode="&#xEC;" horiz-adv-x="278" d="M43 0V19Q60 20 71 21T89 28T98 43T101 74V314Q101 330 99 348T83 375Q73 380 66 381T47 385V395Q114 423 180 448V74Q180 54 182 44T191 28T208 22T235 19V0H43ZM176 493L21 590Q13 595 3 605T-8 627Q-8 664 27 664Q38 664 49 657T68 641L215 493H176Z"  />
<glyph unicode="&#xED;" horiz-adv-x="278" d="M43 0V19Q60 20 71 21T89 28T98 43T101 74V314Q101 330 99 348T83 375Q73 380 66 381T47 385V395Q114 423 180 448V74Q180 54 182 44T191 28T208 22T235 19V0H43ZM44 493L191 641Q198 649 209 656T232 664Q267 664 267 627Q267 616 257 606T238 590L83 493H44Z"  />
<glyph unicode="&#xEE;" horiz-adv-x="278" d="M43 0V19Q60 20 71 21T89 28T98 43T101 74V314Q101 330 99 348T83 375Q73 380 66 381T47 385V395Q114 423 180 448V74Q180 54 182 44T191 28T208 22T235 19V0H43ZM19 492H-15L109 659H171L296 492H262L140 595L19 492Z"  />
<glyph unicode="&#xEF;" horiz-adv-x="278" d="M43 0V19Q60 20 71 21T89 28T98 43T101 74V314Q101 330 99 348T83 375Q73 380 66 381T47 385V395Q114 423 180 448V74Q180 54 182 44T191 28T208 22T235 19V0H43ZM40 508Q20 508 5 523T-10 558Q-10 577 5 592T40 608Q60 608 75 593T90 558Q90 538 75 523T40 508ZM239 508Q219 508 204 523T189 558Q189 577 204 592T239 608Q259 608 274 593T289 558Q289 538 274 523T239 508Z"  />
<glyph unicode="&#xF0;" horiz-adv-x="500" d="M123 216Q123 178 130 141T152 74T191 26T251 8Q286 8 310 26T349 73T371 140T378 216Q378 254 371 291T349 358T310 406T251 424Q216 424 192 406T152 359T130 292T123 216ZM130 530L113 554L210 612Q182 633 153 648T95 671L102 690Q145 685 183 672T256 640L362 703L379 679L283 622Q328 592 361 550T417 459T451 355T463 247Q463 196 453 150T417 67T351 10T248 -11Q198 -11 159 6T93 55T52 127T38 216Q38 263 52 304T94 376T162 425T253 443Q285 443 306 434T347 414Q339 465 309 511T235 593L130 530Z"  />
<glyph unicode="&#xF1;" horiz-adv-x="556" d="M41 0V19Q58 20 69 21T87 28T96 43T99 74V322Q99 351 88 364T50 385V396Q84 406 115 418T178 443V367Q193 383 207 396T237 420T271 437T314 443Q341 443 367 433T414 405T447 363T460 311V74Q460 54 464 44T477 28T497 22T521 19V0H323V19Q340 20 351 21T369 28T378 43T381 74V294Q381 342 356 370T281 399Q265 399 247 392T214 372T188 344T178 311V74Q178 54 180 44T189 28T207 22T234 19V0H41ZM445 623Q441 602 433 583T411 550T380 526T339 517Q317 517 298 524T261 540Q244 549 229 556T199 563Q179 563 164 550T144 517H115Q124 561 149 589T223 618Q243 618 260 611T294 596Q311 587 328 580T362 573Q383 573 396 589T416 623H445Z"  />
<glyph unicode="&#xF2;" horiz-adv-x="500" d="M462 216Q462 169 447 128T404 55T337 7T250 -11Q202 -11 163 6T96 55T53 127T38 216Q38 263 53 304T96 376T163 425T250 443Q298 443 337 425T404 377T447 305T462 216ZM377 216Q377 254 370 291T348 358T309 406T250 424Q215 424 191 406T152 359T130 292T123 216Q123 178 130 141T152 74T191 26T250 8Q285 8 309 26T348 73T370 140T377 216ZM287 493L132 590Q124 595 114 605T103 627Q103 664 138 664Q149 664 160 657T179 641L326 493H287Z"  />
<glyph unicode="&#xF3;" horiz-adv-x="500" d="M462 216Q462 169 447 128T404 55T337 7T250 -11Q202 -11 163 6T96 55T53 127T38 216Q38 263 53 304T96 376T163 425T250 443Q298 443 337 425T404 377T447 305T462 216ZM377 216Q377 254 370 291T348 358T309 406T250 424Q215 424 191 406T152 359T130 292T123 216Q123 178 130 141T152 74T191 26T250 8Q285 8 309 26T348 73T370 140T377 216ZM175 493L322 641Q329 649 340 656T363 664Q398 664 398 627Q398 616 388 606T369 590L214 493H175Z"  />
<glyph unicode="&#xF4;" horiz-adv-x="500" d="M462 216Q462 169 447 128T404 55T337 7T250 -11Q202 -11 163 6T96 55T53 127T38 216Q38 263 53 304T96 376T163 425T250 443Q298 443 337 425T404 377T447 305T462 216ZM377 216Q377 254 370 291T348 358T309 406T250 424Q215 424 191 406T152 359T130 292T123 216Q123 178 130 141T152 74T191 26T250 8Q285 8 309 26T348 73T370 140T377 216ZM130 492H96L220 659H282L407 492H373L251 595L130 492Z"  />
<glyph unicode="&#xF5;" horiz-adv-x="500" d="M462 216Q462 169 447 128T404 55T337 7T250 -11Q202 -11 163 6T96 55T53 127T38 216Q38 263 53 304T96 376T163 425T250 443Q298 443 337 425T404 377T447 305T462 216ZM377 216Q377 254 370 291T348 358T309 406T250 424Q215 424 191 406T152 359T130 292T123 216Q123 178 130 141T152 74T191 26T250 8Q285 8 309 26T348 73T370 140T377 216ZM417 623Q413 602 405 583T383 550T352 526T311 517Q289 517 270 524T233 540Q216 549 201 556T171 563Q151 563 136 550T116 517H87Q96 561 121 589T195 618Q215 618 232 611T266 596Q283 587 300 580T334 573Q355 573 368 589T388 623H417Z"  />
<glyph unicode="&#xF6;" horiz-adv-x="500" d="M462 216Q462 169 447 128T404 55T337 7T250 -11Q202 -11 163 6T96 55T53 127T38 216Q38 263 53 304T96 376T163 425T250 443Q298 443 337 425T404 377T447 305T462 216ZM377 216Q377 254 370 291T348 358T309 406T250 424Q215 424 191 406T152 359T130 292T123 216Q123 178 130 141T152 74T191 26T250 8Q285 8 309 26T348 73T370 140T377 216ZM151 508Q131 508 116 523T101 558Q101 577 116 592T151 608Q171 608 186 593T201 558Q201 538 186 523T151 508ZM350 508Q330 508 315 523T300 558Q300 577 315 592T350 608Q370 608 385 593T400 558Q400 538 385 523T350 508Z"  />
<glyph unicode="&#xF7;" horiz-adv-x="560" d="M502 249V195H58V249H502ZM280 1Q259 1 247 15T235 50Q235 72 247 85T282 99Q304 99 313 84T322 50Q322 29 313 15T280 1ZM280 345Q259 345 247 359T235 394Q235 416 247 429T282 443Q304 443 313 428T322 394Q322 373 313 359T280 345Z"  />
<glyph unicode="&#xF8;" horiz-adv-x="500" d="M176 40Q205 8 250 8Q285 8 309 26T348 73T370 140T377 216Q377 256 370 294T347 361L176 40ZM327 389Q297 424 250 424Q215 424 191 406T152 359T130 292T123 216Q123 175 130 136T155 68L327 389ZM371 406Q414 376 438 327T462 216Q462 169 447 128T404 55T337 7T250 -11Q202 -11 160 9L100 -103H64L132 25Q87 54 63 104T38 216Q38 263 53 304T96 376T163 425T250 443Q303 443 344 421L400 525H434L371 406Z"  />
<glyph unicode="&#xF9;" horiz-adv-x="556" d="M378 -11V59Q349 27 309 8T225 -11Q186 -11 161 -2T122 23T102 63T97 113V387Q97 402 85 407T38 413V432H176V87Q176 68 183 56T203 36T232 26T266 23Q323 23 350 58T379 146V387Q379 402 368 407T321 413V432H458V91Q458 74 463 66T477 53T495 48T511 47V34L378 -11ZM295 493L140 590Q132 595 122 605T111 627Q111 664 146 664Q157 664 168 657T187 641L334 493H295Z"  />
<glyph unicode="&#xFA;" horiz-adv-x="556" d="M378 -11V59Q349 27 309 8T225 -11Q186 -11 161 -2T122 23T102 63T97 113V387Q97 402 85 407T38 413V432H176V87Q176 68 183 56T203 36T232 26T266 23Q323 23 350 58T379 146V387Q379 402 368 407T321 413V432H458V91Q458 74 463 66T477 53T495 48T511 47V34L378 -11ZM203 493L350 641Q357 649 368 656T391 664Q426 664 426 627Q426 616 416 606T397 590L242 493H203Z"  />
<glyph unicode="&#xFB;" horiz-adv-x="556" d="M378 -11V59Q349 27 309 8T225 -11Q186 -11 161 -2T122 23T102 63T97 113V387Q97 402 85 407T38 413V432H176V87Q176 68 183 56T203 36T232 26T266 23Q323 23 350 58T379 146V387Q379 402 368 407T321 413V432H458V91Q458 74 463 66T477 53T495 48T511 47V34L378 -11ZM158 492H124L248 659H310L435 492H401L279 595L158 492Z"  />
<glyph unicode="&#xFC;" horiz-adv-x="556" d="M378 -11V59Q349 27 309 8T225 -11Q186 -11 161 -2T122 23T102 63T97 113V387Q97 402 85 407T38 413V432H176V87Q176 68 183 56T203 36T232 26T266 23Q323 23 350 58T379 146V387Q379 402 368 407T321 413V432H458V91Q458 74 463 66T477 53T495 48T511 47V34L378 -11ZM179 508Q159 508 144 523T129 558Q129 577 144 592T179 608Q199 608 214 593T229 558Q229 538 214 523T179 508ZM378 508Q358 508 343 523T328 558Q328 577 343 592T378 608Q398 608 413 593T428 558Q428 538 413 523T378 508Z"  />
<glyph unicode="&#xFD;" horiz-adv-x="500" d="M8 432H225V413Q217 413 205 413T180 410T160 401T151 385Q151 383 154 375T163 355L300 100L380 331Q391 366 391 380Q391 392 384 398T365 408T342 412T320 413V432H489V413Q453 413 439 399T413 352L252 -110Q246 -128 238 -146T220 -180T194 -205T157 -215Q140 -215 130 -203T119 -175Q119 -157 129 -146T157 -134Q165 -135 173 -137T189 -140Q210 -142 220 -125T236 -92L267 7L73 361Q64 377 59 386T49 400T35 407T8 413V432ZM175 493L322 641Q329 649 340 656T363 664Q398 664 398 627Q398 616 388 606T369 590L214 493H175Z"  />
<glyph unicode="&#xFE;" horiz-adv-x="556" d="M174 191Q174 93 201 51T282 8Q308 8 333 20T379 55T411 114T423 196Q423 248 411 287T377 353T326 392T260 406Q236 406 212 397T174 376V191ZM174 397Q193 409 209 417T241 432T274 440T315 443Q360 443 396 426T457 380T495 312T508 229Q508 169 488 124T435 49T362 4T280 -11Q243 -11 217 -6T174 5V-154Q175 -169 179 -177T193 -188T215 -193T248 -196V-215H37V-196Q64 -194 78 -189T95 -154V591Q95 608 91 617T78 632Q71 637 62 639T42 646V653Q77 663 109 675T174 699V397Z"  />
<glyph unicode="&#xFF;" horiz-adv-x="500" d="M8 432H225V413Q217 413 205 413T180 410T160 401T151 385Q151 383 154 375T163 355L300 100L380 331Q391 366 391 380Q391 392 384 398T365 408T342 412T320 413V432H489V413Q453 413 439 399T413 352L252 -110Q246 -128 238 -146T220 -180T194 -205T157 -215Q140 -215 130 -203T119 -175Q119 -157 129 -146T157 -134Q165 -135 173 -137T189 -140Q210 -142 220 -125T236 -92L267 7L73 361Q64 377 59 386T49 400T35 407T8 413V432ZM151 508Q131 508 116 523T101 558Q101 577 116 592T151 608Q171 608 186 593T201 558Q201 538 186 523T151 508ZM350 508Q330 508 315 523T300 558Q300 577 315 592T350 608Q370 608 385 593T400 558Q400 538 385 523T350 508Z"  />
<glyph unicode="&#x152;" horiz-adv-x="1000" d="M526 551Q526 574 519 596T493 637T443 666T362 678Q285 678 237 650T162 574T124 465T114 336Q114 273 124 214T160 110T233 38T353 10Q413 10 447 22T499 61T521 126T526 219V551ZM627 362H680Q707 362 726 368T759 389T785 428T806 487H822V199H806Q798 239 789 265T765 306T730 328T680 335H627V77Q627 68 628 59T633 41T647 27T674 21H736Q794 20 825 31T877 66Q897 86 919 115T958 191L974 182L941 0H572Q545 -2 518 -3T463 -7Q435 -9 408 -10T353 -11Q280 -11 218 6T104 79Q56 130 32 199T7 341Q7 395 22 451T69 557Q93 597 121 624T183 667T255 691T340 699Q365 699 389 698T437 695Q461 693 485 692T534 690H913L962 530L946 524Q938 534 928 549T908 578T887 606T868 626Q851 641 836 649T805 662T772 668T734 669H627V362Z"  />
<glyph unicode="&#x153;" horiz-adv-x="833" d="M117 211Q117 184 123 149T144 82T183 30T243 8Q282 8 307 28T348 80T369 147T375 214Q375 243 370 279T350 348T312 402T249 424Q211 424 186 402T145 348T124 278T117 211ZM667 316Q667 338 662 358T645 393T615 416T573 425Q550 425 531 416T498 391T475 357T461 316H667ZM456 293Q455 282 455 271T454 249Q454 210 463 175T493 114T545 73T619 57Q672 57 716 84T779 162L795 154Q785 121 765 91T717 39T656 3T587 -11Q484 -11 417 73Q384 28 339 9T238 -11Q229 -11 211 -8T170 5T125 30T82 73T51 137T38 227Q38 271 54 310T98 379T165 426T248 443Q298 443 344 422T416 355Q451 397 491 420T587 443Q623 443 656 434T716 405T761 358T787 293H456Z"  />
<glyph unicode="&#x160;" horiz-adv-x="556" d="M49 209H69Q74 169 87 133T122 68T179 24T260 7Q310 7 341 22T390 60T414 108T421 152Q421 190 406 213T366 250T312 273T254 293Q211 307 177 322T119 360T83 415T70 498Q70 544 87 581T133 644T201 684T284 699Q326 699 369 685T445 642L475 668H489V463H471Q466 482 460 503T447 547T430 588T407 623Q385 648 358 663T297 678Q226 678 189 636T151 524Q151 491 162 470T193 435T236 412T287 395Q328 383 367 367T438 327T489 268T508 183Q508 130 489 93T437 32T361 -3T270 -14Q224 -14 181 -1T99 37L61 0H49V209ZM400 917H434L310 750H248L123 917H157L279 814L400 917Z"  />
<glyph unicode="&#x161;" horiz-adv-x="389" d="M50 139H62Q69 117 77 94T97 51T128 20T176 8Q220 8 241 31T263 98Q263 121 253 136T227 164T192 185T156 204Q135 216 116 227T83 253T60 285T51 330Q51 358 63 379T94 414T137 436T187 443Q221 443 253 433T318 412V306H302Q297 328 288 349T263 387T228 414T183 424Q151 424 133 404T114 353Q114 331 130 316T172 288T226 261T281 229T322 186T339 124Q339 90 326 65T290 23T238 -2T178 -11Q144 -11 112 -4T50 21V139ZM317 659H351L227 492H165L40 659H74L196 556L317 659Z"  />
<glyph unicode="&#x178;" horiz-adv-x="611" d="M7 690H259V669Q250 669 237 669T213 665T194 654T186 633Q186 628 196 609T220 566T246 521T263 493L346 352Q353 365 367 387T399 437T435 493T469 548T494 596T504 631Q504 643 498 650T481 661T460 666T440 669V690H604V669Q581 664 569 653T544 623L357 324V77Q357 58 363 47T380 30T405 23T435 21V0H182V21Q196 21 209 22T233 30T250 47T256 77V310L97 587Q89 599 81 613T62 640T38 661T7 669V690ZM207 766Q187 766 172 781T157 816Q157 835 172 850T207 866Q227 866 242 851T257 816Q257 796 242 781T207 766ZM406 766Q386 766 371 781T356 816Q356 835 371 850T406 866Q426 866 441 851T456 816Q456 796 441 781T406 766Z"  />
<glyph unicode="&#x17D;" horiz-adv-x="667" d="M130 690H625L155 21H380Q416 21 438 23T476 34T508 58T547 101Q556 111 568 126T592 157T614 190T631 220L648 216L580 0H20L493 669H296Q276 669 262 668T236 662T213 648T188 625Q157 592 130 556T74 485L57 493L130 690ZM456 917H490L366 750H304L179 917H213L335 814L456 917Z"  />
<glyph unicode="&#x17E;" horiz-adv-x="444" d="M24 0L302 413H170Q145 413 129 407T100 389T76 358T49 314L31 317L63 432H406L125 19H197Q248 19 277 21T327 34T364 71T407 142L421 135L391 0H24ZM344 659H378L254 492H192L67 659H101L223 556L344 659Z"  />
<glyph unicode="&#x192;" horiz-adv-x="500" d="M255 65Q250 34 242 -5T218 -82T181 -151T127 -199Q116 -204 100 -206T71 -208Q61 -208 50 -206T29 -198T13 -184T6 -163Q6 -149 15 -140T39 -130Q54 -130 62 -138T78 -156T91 -174T108 -183Q125 -183 136 -161T155 -111T166 -55T172 -16Q183 82 194 179T219 373H109L116 417H226Q229 442 237 477T257 549T286 615T324 661Q332 667 342 674T365 686T389 694T412 696Q425 694 439 692T464 683T483 667T491 638Q491 624 479 618T455 611Q438 611 428 624T411 651Q408 659 406 666T394 674Q378 676 366 661T344 621T329 565T318 505T310 452T304 417H426L422 373H301L255 65Z"  />
<glyph unicode="&#x2C6;" horiz-adv-x="278" d="M19 492H-15L109 659H171L296 492H262L140 595L19 492Z"  />
<glyph unicode="&#x2DC;" horiz-adv-x="278" d="M306 623Q302 602 294 583T272 550T241 526T200 517Q178 517 159 524T122 540Q105 549 90 556T60 563Q40 563 25 550T5 517H-24Q-15 561 10 589T84 618Q104 618 121 611T155 596Q172 587 189 580T223 573Q244 573 257 589T277 623H306Z"  />
<glyph unicode="&#x2013;" horiz-adv-x="500" d="M0 249H500V195H0V249Z"  />
<glyph unicode="&#x2014;" horiz-adv-x="1000" d="M0 249H1000V195H0V249Z"  />
<glyph unicode="&#x2018;" horiz-adv-x="278" d="M182 680Q171 672 159 661T135 637T117 609T109 580Q109 561 125 550Q139 544 152 541T177 532T195 517T202 488Q202 465 186 451T147 437Q126 437 111 446T86 470T71 503T66 540Q66 567 74 590T98 632T132 668T172 699L182 680Z"  />
<glyph unicode="&#x2019;" horiz-adv-x="278" d="M96 456Q107 464 119 475T143 499T161 527T169 556Q169 575 153 586Q139 592 126 595T101 604T83 618T76 648Q76 671 92 685T131 699Q152 699 167 690T192 666T207 633T212 596Q212 569 204 546T180 504T146 468T106 437L96 456Z"  />
<glyph unicode="&#x201A;" horiz-adv-x="278" d="M83 -139Q94 -131 106 -120T130 -96T148 -68T156 -39Q156 -20 140 -9Q126 -3 113 0T88 9T70 23T63 53Q63 76 79 90T118 104Q139 104 154 95T179 71T194 38T199 1Q199 -26 191 -49T167 -91T133 -127T93 -158L83 -139Z"  />
<glyph unicode="&#x201C;" horiz-adv-x="500" d="M429 680Q418 672 406 661T382 637T364 609T356 580Q356 561 372 550Q386 544 399 541T424 532T442 517T449 488Q449 465 433 451T394 437Q373 437 358 446T333 470T318 503T313 540Q313 567 321 590T345 632T379 668T419 699L429 680ZM223 680Q212 672 200 661T176 637T158 609T150 580Q150 561 166 550Q180 544 193 541T218 532T236 517T243 488Q243 465 227 451T188 437Q167 437 152 446T127 470T112 503T107 540Q107 567 115 590T139 632T173 668T213 699L223 680Z"  />
<glyph unicode="&#x201D;" horiz-adv-x="500" d="M71 456Q82 464 94 475T118 499T136 527T144 556Q144 575 128 586Q114 592 101 595T76 604T58 618T51 648Q51 671 67 685T106 699Q127 699 142 690T167 666T182 633T187 596Q187 569 179 546T155 504T121 468T81 437L71 456ZM277 456Q288 464 300 475T324 499T342 527T350 556Q350 575 334 586Q320 592 307 595T282 604T264 618T257 648Q257 671 273 685T312 699Q333 699 348 690T373 666T388 633T393 596Q393 569 385 546T361 504T327 468T287 437L277 456Z"  />
<glyph unicode="&#x201E;" horiz-adv-x="500" d="M83 -139Q94 -131 106 -120T130 -96T148 -68T156 -39Q156 -20 140 -9Q126 -3 113 0T88 9T70 23T63 53Q63 76 79 90T118 104Q139 104 154 95T179 71T194 38T199 1Q199 -26 191 -49T167 -91T133 -127T93 -158L83 -139ZM289 -139Q300 -131 312 -120T336 -96T354 -68T362 -39Q362 -20 346 -9Q332 -3 319 0T294 9T276 23T269 53Q269 76 285 90T324 104Q345 104 360 95T385 71T400 38T405 1Q405 -26 397 -49T373 -91T339 -127T299 -158L289 -139Z"  />
<glyph unicode="&#x2020;" horiz-adv-x="500" d="M240 -127Q240 -76 239 -25T234 77T222 178T197 277Q213 296 221 318T233 363T238 411T239 459Q209 459 188 454T150 442T120 430T93 424Q75 424 65 437T55 468Q55 487 66 500T98 514Q111 514 124 509T153 497T190 486T239 480Q240 510 234 545Q232 558 227 572T216 600T207 626T203 650Q203 668 216 683T254 699Q274 699 286 684T298 650Q298 639 294 627T285 601T274 573T267 545Q261 510 262 480Q290 480 310 485T347 497T377 508T403 514Q423 514 434 501T446 468Q446 451 436 438T408 424Q394 424 381 429T352 441T314 453T262 459Q262 436 263 412T267 364T279 318T304 277Q288 228 280 178T267 77T262 -25T261 -127H240Z"  />
<glyph unicode="&#x2021;" horiz-adv-x="500" d="M249 699Q272 699 285 684T298 650Q298 641 294 629T285 603T275 577T268 552Q261 516 262 479Q290 480 310 485T345 497T374 509T403 514Q422 514 434 501T446 469Q446 452 437 439T408 425Q392 425 376 430T341 443T304 455T262 461Q260 415 266 369T302 284Q273 246 267 200T262 108Q283 108 302 113T339 125T373 137T406 143Q425 143 434 130T444 99Q444 80 432 67T401 54Q385 54 372 59T344 70T308 82T260 89Q259 52 266 16Q268 5 273 -8T283 -35T292 -60T296 -82Q296 -101 284 -116T252 -131Q229 -131 216 -116T203 -82Q203 -73 207 -61T216 -35T226 -9T233 16Q240 52 239 89Q210 88 191 83T156 71T127 59T98 54Q79 54 67 67T55 99Q55 116 64 129T93 143Q109 143 125 138T160 125T197 113T239 107Q241 153 235 199T199 284Q228 322 234 368T239 460Q218 460 199 455T162 443T128 431T95 425Q76 425 67 438T57 469Q57 488 69 501T100 514Q116 514 129 509T157 498T192 486T241 479Q242 516 235 552Q233 563 228 576T218 603T209 628T205 650Q205 669 217 684T249 699Z"  />
<glyph unicode="&#x2022;" horiz-adv-x="500" d="M78 345Q78 381 91 412T128 467T182 504T250 518Q286 518 317 505T372 468T409 413T423 345Q423 309 410 278T373 223T318 186T250 172Q214 172 183 185T128 222T92 277T78 345Z"  />
<glyph unicode="&#x2026;" horiz-adv-x="1000" d="M166 -14Q140 -14 125 4T110 43Q110 66 127 83T166 101Q191 101 208 84T225 43Q225 17 206 2T166 -14ZM499 -14Q473 -14 458 4T443 43Q443 66 460 83T499 101Q524 101 541 84T558 43Q558 17 539 2T499 -14ZM832 -14Q806 -14 791 4T776 43Q776 66 793 83T832 101Q857 101 874 84T891 43Q891 17 872 2T832 -14Z"  />
<glyph unicode="&#x2030;" horiz-adv-x="1000" d="M347 119Q347 157 362 195T403 263T465 311T540 330Q566 330 583 319T612 291T627 252T632 208Q632 175 621 136T589 62T538 4T469 -19Q440 -19 418 -8T380 23T356 68T347 119ZM546 302Q518 302 495 276T455 215T429 144T419 85Q419 53 432 30T480 7Q510 7 534 29T574 84T600 150T609 210Q609 224 606 240T596 270T577 293T546 302ZM709 119Q709 157 724 195T765 263T827 311T902 330Q928 330 945 319T974 291T989 252T994 208Q994 175 983 136T951 62T900 4T831 -19Q802 -19 780 -8T742 23T718 68T709 119ZM908 302Q880 302 857 276T817 215T791 144T781 85Q781 53 794 30T842 7Q872 7 896 29T936 84T962 150T971 210Q971 224 968 240T958 270T939 293T908 302ZM137 -18H90L477 629L475 631Q455 608 424 596T361 583Q338 583 323 586T287 597Q289 588 290 579T291 560Q291 527 281 486T249 410T198 351T127 327Q98 327 76 338T38 369T15 413T7 465Q7 502 22 540T62 608T122 658T196 677Q224 677 238 667T266 643T301 620T365 609Q397 609 421 620T464 647T497 679T522 706H567L137 -18ZM198 649Q170 643 148 617T111 557T87 488T79 428Q79 398 91 376T138 353Q170 353 194 375T234 430T259 498T268 559Q268 567 266 582T258 605Q240 616 226 626T198 649Z"  />
<glyph unicode="&#x2039;" horiz-adv-x="333" d="M156 222Q163 216 180 196T214 152T244 107T258 80Q258 71 251 71Q245 71 238 77T227 88Q195 125 157 157T80 222Q116 254 153 285T225 352Q234 360 240 367T251 375Q259 375 259 368Q259 356 246 336T216 293T182 251T156 222Z"  />
<glyph unicode="&#x203A;" horiz-adv-x="333" d="M177 224Q170 230 153 250T119 294T89 339T75 366Q75 375 82 375Q88 375 95 369T106 358Q138 321 176 289T253 224Q217 192 180 161T108 94Q99 86 93 79T82 71Q74 71 74 78Q74 90 87 110T117 153T151 195T177 224Z"  />
<glyph unicode="&#x20AC;" horiz-adv-x="500" d="M451 646H467V452H448Q442 494 428 531T394 596T346 640T288 656Q254 656 231 631T192 568T170 484T159 399H402L392 363H157Q156 352 156 342T156 323Q156 315 156 305T157 282H369L359 246H159Q162 209 170 168T193 93T233 35T295 12Q329 12 355 28T401 69T433 127T452 191H470Q467 171 457 137T426 71T371 16T283 -8Q195 -8 140 59T69 246H20L30 282H65Q64 293 64 305T64 329Q64 337 64 346T65 363H20L30 399H68Q75 460 94 511T142 598T208 655T288 675Q326 675 357 656T421 606L451 646Z"  />
<glyph unicode="&#x2122;" horiz-adv-x="940" d="M171 670H77Q61 670 54 664T37 646Q24 631 15 614T-9 581L-16 585L7 699Q13 697 19 696T32 693Q44 690 57 690H341Q354 690 366 693T391 699L413 584L405 580Q394 597 385 614T362 646Q352 657 345 663T322 670H229V345Q229 326 239 321T282 313V296H119V313Q148 315 159 320T171 345V670ZM659 296H649L494 636H493V345Q493 327 507 320T546 313V296H422V313Q445 313 459 318T473 345V646Q471 665 458 668T428 673V690H525L661 367L803 690H909V673Q886 671 877 665T867 636V345Q867 323 878 318T909 313V296H760L761 313Q791 315 799 320T809 345V640H807L659 296Z"  />

</font>
</defs>
</svg>
